<svg width="1609" height="151" viewBox="0 0 1609 151" fill="none" xmlns="http://www.w3.org/2000/svg">
<path d="M2.60758 99.8711C2.1247 99.8711 1.73839 99.7021 1.44866 99.3641C1.15893 99.026 1.06235 98.5914 1.15893 98.0603L11.1547 50.9789C11.2512 50.4477 11.5168 50.0131 11.9514 49.6751C12.386 49.3371 12.8448 49.1681 13.3277 49.1681H46.1398C46.6709 49.1681 47.0572 49.3371 47.2987 49.6751C47.5884 50.0131 47.685 50.4477 47.5884 50.9789L46.3571 56.7735C46.2605 57.2564 45.9949 57.6669 45.5603 58.0049C45.174 58.3429 44.7153 58.5119 44.1841 58.5119H20.7158L18.2531 69.8839H40.1278C40.659 69.8839 41.0453 70.0529 41.2868 70.3909C41.5765 70.7289 41.6731 71.1635 41.5765 71.6947L40.4176 77.0547C40.321 77.5376 40.0554 77.9481 39.6208 78.2861C39.2345 78.6241 38.7758 78.7931 38.2446 78.7931H16.4423L13.9071 90.5272H37.9548C38.486 90.5272 38.8723 90.6963 39.1138 91.0343C39.4035 91.3723 39.5001 91.8069 39.4035 92.3381L38.1721 98.0603C38.0756 98.5914 37.81 99.026 37.3754 99.3641C36.9891 99.7021 36.5303 99.8711 35.9992 99.8711H2.60758ZM75.0778 99.8711C74.3535 99.8711 73.8465 99.7021 73.5567 99.3641C73.267 98.9778 73.0739 98.5432 72.9773 98.0603L66.5308 64.2341C66.4342 63.6064 66.5308 63.1235 66.8205 62.7854C67.1585 62.3991 67.6414 62.206 68.2691 62.206H74.8605C75.44 62.206 75.8746 62.375 76.1643 62.713C76.4541 63.0027 76.6472 63.3891 76.7438 63.8719L80.5103 87.5575L94.5623 63.6546C94.7072 63.3649 94.9727 63.051 95.3591 62.713C95.7454 62.375 96.2524 62.206 96.8801 62.206H104.341C104.92 62.206 105.331 62.4474 105.572 62.9303C105.814 63.3649 105.741 63.8719 105.355 64.4514L84.5666 98.0603C84.2285 98.5432 83.8664 98.9778 83.4801 99.3641C83.0937 99.7021 82.5384 99.8711 81.8141 99.8711H75.0778ZM105.933 99.8711C105.45 99.8711 105.064 99.7021 104.774 99.3641C104.484 99.026 104.388 98.5914 104.484 98.0603L111.728 64.0168C111.824 63.4856 112.09 63.051 112.525 62.713C112.959 62.375 113.418 62.206 113.901 62.206H121.144C121.675 62.206 122.062 62.375 122.303 62.713C122.544 63.051 122.617 63.4856 122.52 64.0168L115.277 98.0603C115.18 98.5914 114.939 99.026 114.553 99.3641C114.166 99.7021 113.708 99.8711 113.176 99.8711H105.933ZM114.987 56.4113C114.456 56.4113 114.046 56.2423 113.756 55.9043C113.514 55.5663 113.442 55.1317 113.539 54.6005L114.77 48.8059C114.867 48.2747 115.108 47.8401 115.494 47.5021C115.929 47.1158 116.412 46.9226 116.943 46.9226H124.548C125.08 46.9226 125.466 47.1158 125.707 47.5021C125.997 47.8401 126.094 48.2747 125.997 48.8059L124.693 54.6005C124.645 55.1317 124.404 55.5663 123.969 55.9043C123.534 56.2423 123.076 56.4113 122.593 56.4113H114.987ZM137.325 99.8711C136.601 99.8711 136.094 99.7021 135.804 99.3641C135.514 98.9778 135.321 98.5432 135.224 98.0603L128.778 64.2341C128.681 63.6064 128.778 63.1235 129.068 62.7854C129.406 62.3991 129.888 62.206 130.516 62.206H137.108C137.687 62.206 138.122 62.375 138.411 62.713C138.701 63.0027 138.894 63.3891 138.991 63.8719L142.757 87.5575L156.809 63.6546C156.954 63.3649 157.22 63.051 157.606 62.713C157.992 62.375 158.499 62.206 159.127 62.206H166.588C167.167 62.206 167.578 62.4474 167.819 62.9303C168.061 63.3649 167.988 63.8719 167.602 64.4514L146.814 98.0603C146.476 98.5432 146.113 98.9778 145.727 99.3641C145.341 99.7021 144.785 99.8711 144.061 99.8711H137.325ZM184.043 100.595C180.373 100.595 177.307 99.9194 174.844 98.5673C172.43 97.1669 170.764 95.1147 169.846 92.4105C168.929 89.7063 168.808 86.3986 169.484 82.4872C169.581 82.1009 169.677 81.5939 169.774 80.9661C169.919 80.2901 170.063 79.7589 170.208 79.3726C171.174 75.6544 172.671 72.4673 174.699 69.8114C176.776 67.1073 179.311 65.055 182.305 63.6546C185.347 62.206 188.679 61.4817 192.3 61.4817C196.357 61.4817 199.544 62.3267 201.861 64.0168C204.228 65.6586 205.797 67.9282 206.57 70.8255C207.342 73.6745 207.342 76.9582 206.57 80.6764L206.28 82.3423C206.183 82.8252 205.918 83.2357 205.483 83.5737C205.049 83.9117 204.566 84.0807 204.034 84.0807H180.421C180.421 84.129 180.397 84.2256 180.349 84.3705C180.349 84.467 180.325 84.5636 180.276 84.6602C180.035 86.2054 180.035 87.6299 180.276 88.9337C180.518 90.1892 181.073 91.2033 181.942 91.9759C182.86 92.7485 184.043 93.1348 185.492 93.1348C186.651 93.1348 187.665 92.9658 188.534 92.6278C189.403 92.2898 190.127 91.8793 190.707 91.3964C191.335 90.9136 191.817 90.5031 192.155 90.1651C192.687 89.6822 193.097 89.3925 193.387 89.2959C193.677 89.151 194.111 89.0786 194.691 89.0786H202.224C202.707 89.0786 203.069 89.2235 203.31 89.5132C203.552 89.7546 203.6 90.1168 203.455 90.5997C203.262 91.3723 202.658 92.3381 201.644 93.497C200.678 94.6076 199.35 95.7183 197.66 96.8289C195.97 97.8913 193.966 98.7846 191.648 99.5089C189.379 100.233 186.844 100.595 184.043 100.595ZM181.87 77.4893H196.067V77.3445C196.501 75.6061 196.55 74.1091 196.212 72.8536C195.922 71.5498 195.318 70.5358 194.401 69.8114C193.483 69.0871 192.276 68.7249 190.779 68.7249C189.282 68.7249 187.93 69.0871 186.723 69.8114C185.516 70.5358 184.502 71.5498 183.681 72.8536C182.908 74.1091 182.305 75.6061 181.87 77.3445V77.4893ZM210.409 99.8711C209.926 99.8711 209.54 99.7021 209.25 99.3641C208.96 99.026 208.864 98.5914 208.96 98.0603L216.204 64.0168C216.3 63.5339 216.566 63.1235 217 62.7854C217.435 62.3991 217.894 62.206 218.377 62.206H225.475C225.958 62.206 226.32 62.3991 226.562 62.7854C226.851 63.1235 226.948 63.5339 226.851 64.0168L226.272 66.9141C227.431 65.4655 228.879 64.3307 230.618 63.5098C232.405 62.6406 234.578 62.206 237.137 62.206H240.976C241.459 62.206 241.821 62.375 242.062 62.713C242.352 63.051 242.449 63.4856 242.352 64.0168L240.976 70.246C240.879 70.7772 240.614 71.2118 240.179 71.5498C239.793 71.8878 239.358 72.0569 238.875 72.0569H232.574C230.401 72.0569 228.59 72.6605 227.141 73.8677C225.741 75.0266 224.799 76.6926 224.316 78.8655L220.188 98.0603C220.091 98.5914 219.825 99.026 219.391 99.3641C219.004 99.7021 218.546 99.8711 218.015 99.8711H210.409ZM254.486 100.595C252.072 100.595 249.971 100.209 248.185 99.4365C246.446 98.6156 245.07 97.4567 244.056 95.9597C243.042 94.4145 242.366 92.6037 242.028 90.5272C241.738 88.4025 241.81 86.0606 242.245 83.5013C242.39 82.5838 242.535 81.7629 242.68 81.0385C242.873 80.2659 243.066 79.445 243.259 78.5758C243.887 76.0648 244.732 73.7711 245.794 71.6947C246.857 69.6183 248.16 67.8316 249.706 66.3347C251.251 64.7894 253.038 63.6063 255.066 62.7854C257.142 61.9162 259.46 61.4817 262.019 61.4817C265.013 61.4817 267.283 61.9404 268.828 62.8579C270.373 63.7271 271.58 64.8136 272.45 66.1174L272.884 64.0168C272.981 63.4856 273.222 63.051 273.609 62.713C274.043 62.375 274.502 62.206 274.985 62.206H281.866C282.397 62.206 282.783 62.375 283.025 62.713C283.315 63.051 283.411 63.4856 283.315 64.0168L276.071 98.0603C275.975 98.5914 275.733 99.026 275.347 99.3641C274.961 99.7021 274.502 99.8711 273.971 99.8711H267.09C266.558 99.8711 266.148 99.7021 265.858 99.3641C265.617 99.026 265.544 98.5914 265.641 98.0603L266.148 95.5976C264.699 97.0462 263.106 98.2534 261.367 99.2192C259.629 100.137 257.335 100.595 254.486 100.595ZM258.615 91.9035C260.45 91.9035 261.995 91.493 263.251 90.6721C264.554 89.8512 265.593 88.813 266.365 87.5575C267.186 86.302 267.79 84.9499 268.176 83.5013C268.417 82.5838 268.635 81.6663 268.828 80.7488C269.021 79.8313 269.19 78.938 269.335 78.0688C269.576 76.7167 269.576 75.4612 269.335 74.3023C269.094 73.0951 268.514 72.1051 267.597 71.3325C266.727 70.5599 265.424 70.1736 263.685 70.1736C261.995 70.1736 260.546 70.5841 259.339 71.405C258.132 72.1776 257.142 73.2158 256.369 74.5196C255.597 75.8234 254.993 77.2479 254.559 78.7931C254.366 79.5174 254.172 80.2659 253.979 81.0385C253.786 81.8112 253.641 82.5596 253.545 83.284C253.351 84.8292 253.303 86.2537 253.4 87.5575C253.545 88.8613 254.027 89.9236 254.848 90.7445C255.669 91.5172 256.925 91.9035 258.615 91.9035ZM286.662 99.8711C286.179 99.8711 285.793 99.7021 285.503 99.3641C285.213 99.026 285.116 98.5914 285.213 98.0603L292.456 64.0168C292.553 63.4856 292.819 63.051 293.253 62.713C293.688 62.375 294.146 62.206 294.629 62.206H301.366C301.848 62.206 302.211 62.375 302.452 62.713C302.742 63.051 302.838 63.4856 302.742 64.0168L302.235 66.4795C303.104 65.562 304.021 64.7411 304.987 64.0168C306.001 63.2442 307.16 62.6406 308.464 62.206C309.816 61.7231 311.385 61.4817 313.172 61.4817C315.973 61.4817 318.242 62.037 319.981 63.1476C321.768 64.2582 322.999 65.8276 323.675 67.8557C325.172 65.9725 326.91 64.4514 328.89 63.2925C330.918 62.0853 333.284 61.4817 335.989 61.4817C338.596 61.4817 340.842 62.0611 342.725 63.22C344.608 64.3307 345.936 66.0691 346.709 68.4352C347.53 70.7531 347.554 73.747 346.781 77.4169L342.363 98.0603C342.266 98.5914 342 99.026 341.566 99.3641C341.18 99.7021 340.745 99.8711 340.262 99.8711H333.091C332.608 99.8711 332.222 99.7021 331.932 99.3641C331.643 99.026 331.546 98.5914 331.643 98.0603L335.989 77.9964C336.375 76.0165 336.423 74.4713 336.133 73.3606C335.892 72.2017 335.385 71.3808 334.612 70.8979C333.84 70.415 332.85 70.1736 331.643 70.1736C330.677 70.1736 329.639 70.415 328.528 70.8979C327.417 71.3808 326.403 72.2017 325.486 73.3606C324.568 74.4713 323.916 76.0165 323.53 77.9964L319.184 98.0603C319.088 98.5914 318.846 99.026 318.46 99.3641C318.073 99.7021 317.615 99.8711 317.084 99.8711H309.985C309.454 99.8711 309.043 99.7021 308.754 99.3641C308.512 99.026 308.44 98.5914 308.536 98.0603L312.81 77.9964C313.245 76.0165 313.317 74.4713 313.027 73.3606C312.738 72.2017 312.182 71.3808 311.361 70.8979C310.589 70.415 309.647 70.1736 308.536 70.1736C307.522 70.1736 306.46 70.4392 305.349 70.9704C304.239 71.4532 303.225 72.25 302.307 73.3606C301.438 74.4713 300.786 75.9924 300.352 77.9239L296.078 98.0603C295.981 98.5914 295.716 99.026 295.281 99.3641C294.895 99.7021 294.46 99.8711 293.977 99.8711H286.662Z" fill="#6D2E46"/>
<path d="M1094.3 86.0237C1093.53 85.5101 1092.76 85.2533 1091.73 85.5101C1088.65 86.2805 1085.05 86.7941 1080.69 86.7941C1076.07 86.7941 1071.7 86.0237 1067.85 84.9966C1067.34 82.9423 1066.31 81.1448 1065.03 79.8608C1063.74 78.5769 1062.2 77.8065 1060.66 77.8065C1059.63 77.8065 1058.86 78.3201 1058.09 79.0905C1057.32 79.8608 1057.06 80.6312 1057.06 81.6583C1057.06 84.2262 1058.35 86.5373 1060.92 88.3348V89.8755C1060.92 93.4705 1060.15 97.5791 1058.35 102.201C1056.55 106.823 1054.5 110.932 1052.19 114.27C1049.87 117.609 1047.56 119.406 1045.51 119.663C1045.25 119.663 1045 119.663 1044.48 119.406C1043.97 119.149 1043.71 118.122 1043.2 116.581C1042.68 115.041 1042.68 113.243 1042.68 111.189C1042.68 102.972 1044.23 95.2681 1047.56 88.3348C1050.9 81.4016 1054.24 76.7794 1057.84 74.7251H1058.09C1058.35 74.7251 1058.86 74.9819 1059.38 74.9819C1060.4 74.9819 1061.17 74.7251 1061.69 73.9547C1062.46 73.4411 1062.71 72.6708 1062.71 71.9004C1062.71 70.6165 1061.94 69.3326 1060.15 68.3054C1058.35 67.2783 1056.29 66.7647 1053.98 66.7647C1051.67 66.7647 1048.85 67.7918 1046.28 69.5893C1043.46 71.3868 1041.14 73.9547 1038.83 77.0362C1034.21 83.4558 1031.64 91.1595 1030.87 99.6334C1026.51 108.107 1021.88 116.325 1017.52 124.028C1010.84 135.584 1005.45 142.26 1001.86 143.801C1001.09 144.058 1000.57 144.058 1000.31 143.544C999.544 142.774 999.031 140.719 998.26 137.638C997.747 134.3 997.233 130.961 997.233 127.366C997.233 121.717 998.004 115.041 999.288 107.337C1000.57 99.6334 1002.11 92.7002 1003.91 86.2805C1005.71 79.8608 1008.02 72.1572 1010.84 63.4264C1013.67 54.6957 1015.98 48.0192 1017.78 43.397C1019.57 38.7749 1021.63 32.8688 1024.45 25.9355C1024.97 24.6516 1025.74 22.8541 1026.51 20.2862C1027.53 17.7183 1028.05 16.1776 1028.56 15.1504C1029.07 13.8665 1028.82 12.5826 1028.3 11.2986C1027.53 10.2715 1026.51 9.24434 1025.48 8.73077C1023.17 7.70362 1021.37 7.70362 1020.09 9.24434C1019.83 9.50113 1019.83 9.50113 1019.83 9.75791C1019.83 9.75791 1019.57 10.0147 1019.57 10.2715C1019.57 10.5283 1019.32 10.5283 1019.32 10.7851V11.0419C1016.49 15.664 1010.07 28.7602 1000.31 50.3303C994.409 63.6832 990.814 71.1301 990.043 72.9276C988.759 71.3868 986.705 70.1029 984.394 69.0758C982.083 68.0486 979.515 67.535 976.947 67.535C972.839 67.535 968.73 69.3325 965.135 72.9276C961.283 76.5226 958.458 81.1448 956.147 86.5373C955.377 88.5916 954.863 90.3891 954.35 92.4434C942.281 107.08 933.807 114.27 928.671 114.27C925.846 114.27 924.563 111.446 924.563 105.54C924.563 98.3495 926.103 89.8755 928.928 80.1176C929.185 78.8337 928.928 77.5497 928.158 76.7794C927.13 75.2386 925.59 74.4683 923.535 74.4683H923.022C919.684 70.8733 915.318 69.0758 909.926 69.0758C904.533 69.0758 899.654 71.1301 895.032 74.9819C890.41 78.8337 886.815 83.9694 884.504 89.8755C883.733 91.4162 883.22 92.957 882.706 94.4977C876.287 103.999 869.61 112.473 862.677 119.663C853.946 128.907 847.783 133.529 844.188 133.529C842.904 133.529 841.62 131.989 840.336 128.907C839.309 125.826 838.539 121.974 838.539 117.352C838.539 108.107 840.08 98.0927 843.161 87.3076C850.351 84.2262 857.798 77.8065 865.501 68.5622C873.205 59.3178 879.368 49.3031 883.99 38.5181C888.869 27.733 891.18 18.7455 891.18 11.2986C891.18 7.9604 890.41 5.39253 889.126 3.33823C887.842 1.28394 886.044 0.513574 883.477 0.513574C879.882 0.513574 875.003 4.1086 868.84 11.2986C862.677 18.4887 856.257 27.4762 850.351 38.7749C843.161 51.871 837.512 64.7104 833.66 77.8065C832.89 80.888 831.862 83.7126 831.349 86.5373C826.727 89.1052 822.875 91.1595 819.023 93.2138C814.144 95.7816 811.833 96.8088 809.265 97.8359C804.129 99.8902 801.048 100.917 799.507 101.431C795.399 102.715 792.317 102.972 789.493 102.972C785.384 102.972 783.843 102.201 783.073 101.688C781.275 100.404 780.762 98.3495 780.505 97.5791C778.964 91.673 783.073 82.6855 783.586 80.1176C783.843 79.0905 783.586 78.3201 783.073 77.8065C782.302 76.7794 781.275 76.2658 779.991 76.2658H779.735C777.423 73.9547 774.342 72.6708 770.747 72.6708C767.152 72.6708 763.557 73.9547 760.476 76.7794C758.421 78.5769 756.624 80.6312 755.083 83.1991C746.609 85.5101 735.054 87.3076 721.701 86.2805C717.078 86.0237 712.713 85.2534 708.861 84.483C708.348 82.4287 707.321 80.6312 706.037 79.3472C704.753 78.0633 703.212 77.2929 701.671 77.2929C700.644 77.2929 699.874 77.8065 699.103 78.5769C698.333 79.3472 698.076 80.1176 698.076 81.1448C698.076 83.7126 699.36 86.0237 701.928 87.8212V89.6187C701.928 93.2138 701.158 97.3223 699.36 101.945C697.563 106.567 695.508 110.675 693.197 114.014C690.886 117.352 688.575 119.149 686.521 119.406C686.264 119.406 686.007 119.406 685.494 119.149C684.98 118.892 684.723 117.865 684.21 116.325C683.696 114.784 683.696 112.986 683.696 110.932C683.696 102.715 685.237 95.0113 688.575 88.078C691.913 81.1448 695.252 76.5226 698.847 74.4683H699.103C699.36 74.4683 699.874 74.7251 700.387 74.7251C701.414 74.7251 702.185 74.4683 702.698 73.6979C703.469 73.1844 703.726 72.414 703.726 71.6436C703.726 70.3597 702.955 69.0758 701.158 68.0486C699.36 67.0215 697.306 66.5079 694.995 66.5079C692.684 66.5079 689.859 67.535 687.291 69.3325C684.467 71.1301 682.155 73.6979 679.844 76.7794C675.222 83.1991 672.654 90.9027 671.884 99.3766C667.519 107.851 662.896 116.068 658.531 123.771C651.855 135.327 646.462 142.003 642.867 143.544C642.097 143.801 641.583 143.801 641.326 143.287C640.556 142.517 640.042 140.463 639.272 137.381C638.758 134.043 638.245 130.705 638.245 127.11C638.245 121.46 639.015 114.784 640.299 107.08C641.583 99.3766 643.124 92.4434 644.921 86.0237C646.719 79.604 649.03 71.9004 651.855 63.1697C654.679 54.4389 656.99 47.7624 658.788 43.1402C660.585 38.5181 662.64 32.612 665.464 25.6787C665.978 24.3948 666.748 22.5973 667.519 20.0294C668.546 17.4615 669.059 15.9208 669.573 14.8937C670.086 13.6097 669.83 12.3258 669.316 11.0419C668.546 10.0147 667.519 8.98755 666.491 8.47398C664.18 7.44683 662.383 7.44683 661.099 8.98755C660.842 9.24434 660.842 9.24434 660.842 9.50113C660.842 9.50113 660.585 9.75791 660.585 10.0147C660.585 10.2715 659.815 10.2715 659.815 10.2715V10.5283C656.99 15.1504 650.571 28.2466 640.813 49.8167C634.907 63.1697 631.312 70.6165 630.541 72.414C629.257 70.8733 627.203 69.5893 624.892 68.5622C622.581 67.535 620.013 67.0215 617.445 67.0215C613.336 67.0215 609.228 68.819 605.633 72.414C601.781 76.009 598.956 80.6312 596.645 86.0237C595.875 88.078 595.361 89.8755 594.848 91.9298C582.779 106.567 574.305 113.757 569.169 113.757C566.344 113.757 565.06 110.932 565.06 105.026C565.06 97.8359 566.601 89.3619 569.426 79.604C569.683 78.3201 569.426 77.0362 568.655 76.2658C567.628 74.7251 566.088 73.9547 564.033 73.9547H563.52C560.182 70.3597 555.816 68.5622 550.424 68.5622C545.031 68.5622 540.152 70.6165 535.53 74.4683C530.908 78.3201 527.313 83.4558 525.002 89.3619C524.231 90.9027 523.718 92.4434 523.204 93.9841C516.784 103.485 510.108 111.959 503.175 119.149C494.444 128.394 488.281 133.016 484.686 133.016C483.402 133.016 482.118 131.475 480.834 128.394C479.807 125.312 479.037 121.46 479.037 116.838C479.037 107.594 480.577 97.5791 483.659 86.7941C490.849 83.7126 498.296 77.2929 505.999 68.0486C513.703 58.8043 519.866 48.7896 524.488 38.0045C529.367 27.2194 531.678 18.2319 531.678 10.7851C531.678 7.44683 530.908 4.87896 529.624 2.82466C528.34 1.02715 526.286 0 523.975 0C520.38 0 515.501 3.59502 509.338 10.7851C503.175 17.9751 496.755 26.9627 490.849 38.2613C483.659 51.1007 478.01 64.1968 474.158 77.0362C473.387 80.1176 472.36 82.9423 471.847 85.7669C467.995 88.078 465.17 89.8755 459.521 92.957C456.183 94.7545 454.385 95.7816 451.561 96.8088C449.506 97.5791 444.627 99.6334 438.208 101.174C437.694 101.174 434.613 101.945 430.247 102.201C426.139 102.458 424.598 102.201 423.571 101.174C420.746 99.1199 421.26 96.8088 419.462 95.5248C418.435 94.7545 416.637 94.7545 415.867 95.5248C414.326 97.0656 416.124 102.201 419.462 105.026C421.773 106.823 424.341 107.337 426.909 107.594C430.504 108.107 433.072 107.594 434.356 107.594C439.492 107.08 445.398 105.54 454.899 101.945C458.494 100.404 461.062 99.1199 463.116 98.0927C465.684 96.8088 468.252 95.5248 470.306 94.2409C469.022 100.661 468.508 106.823 468.508 112.73C468.508 121.974 470.049 128.65 473.387 133.016C476.726 137.381 480.577 139.435 485.2 139.435C488.281 139.435 491.876 138.152 495.728 135.584C499.58 133.016 503.432 129.678 507.027 125.826C510.622 121.974 514.473 117.609 518.068 112.73C519.096 111.189 520.38 109.905 521.407 108.364C521.407 112.73 522.434 116.325 524.488 118.892C526.542 121.717 529.11 123.001 531.935 123.001C534.503 123.001 537.327 121.204 540.666 117.352C544.004 113.5 548.883 107.08 555.559 97.5791V99.6334C555.559 106.053 556.843 111.189 559.411 114.784C561.979 118.379 565.574 120.433 569.939 120.433C574.818 120.433 580.725 116.838 587.915 109.905C589.712 108.107 591.51 106.053 593.307 104.256C593.564 109.135 594.848 112.986 596.902 116.068C599.213 119.663 602.551 121.46 606.66 121.46C608.458 121.46 610.255 120.69 612.053 119.406C613.85 118.122 615.648 116.325 617.188 114.27C618.729 112.216 620.527 109.391 622.581 106.053C624.635 102.715 626.176 99.3766 627.717 96.2952C629.257 93.2138 631.055 89.3619 633.109 84.9966C629.771 99.6334 627.973 111.959 627.973 121.717C627.973 140.463 632.852 149.964 642.61 149.964C645.435 149.964 649.03 147.909 652.882 143.544C656.733 139.179 660.842 133.786 664.694 127.11C667.519 122.231 670.086 117.609 672.398 112.986C673.168 115.811 674.195 118.122 675.479 120.176C678.304 124.285 681.899 126.339 686.521 126.339C690.373 126.339 693.968 124.285 697.306 120.433C700.644 116.581 703.469 111.959 705.523 106.567C707.577 101.174 708.605 96.0384 709.118 90.9027C713.483 91.9298 717.849 92.4434 722.214 92.4434C728.891 92.4434 744.041 91.1595 752.002 89.1052C750.974 92.4434 750.204 95.7816 750.204 99.1199C750.204 102.458 750.974 105.026 752.515 106.823C754.056 108.621 755.597 109.648 757.651 109.648C759.448 109.648 761.246 108.364 763.557 105.796C765.868 103.228 769.206 98.8631 773.828 92.1866V93.7273C773.572 94.4977 772.801 100.147 776.653 104.256C779.478 107.337 783.33 108.107 785.384 108.364C785.897 108.364 787.952 108.621 793.344 107.851C800.021 106.823 805.67 105.283 813.887 102.201C817.226 100.917 821.848 98.6063 829.551 94.7545C828.267 101.431 827.754 107.594 827.754 113.5C827.754 122.744 829.295 129.421 832.633 133.786C835.971 138.152 839.823 140.206 844.445 140.206C847.526 140.206 851.121 138.922 854.973 136.354C858.825 133.786 862.677 130.448 866.272 126.596C869.867 122.744 873.719 118.379 877.314 113.5C878.341 111.959 879.625 110.675 880.652 109.135C880.652 113.5 881.679 117.095 883.733 119.663C885.788 122.487 888.356 123.771 891.18 123.771C893.748 123.771 896.573 121.974 899.911 118.122C903.249 114.27 908.128 107.851 914.805 98.3495V100.404C914.805 106.823 916.089 111.959 918.656 115.554C921.224 119.149 924.819 121.204 929.185 121.204C934.064 121.204 939.97 117.609 947.16 110.675C948.957 108.878 950.755 106.823 952.552 105.026C952.809 109.905 954.093 113.757 956.147 116.838C958.458 120.433 961.797 122.231 965.905 122.231C967.703 122.231 969.5 121.46 971.298 120.176C973.095 118.892 974.893 117.095 976.434 115.041C977.974 112.986 979.772 110.162 981.826 106.823C983.88 103.485 985.421 100.147 986.962 97.0656C988.503 93.9841 990.3 90.1323 992.354 85.7669C989.016 100.404 987.219 112.73 987.219 122.487C987.219 141.233 992.098 150.734 1001.86 150.734C1004.68 150.734 1008.28 148.68 1012.13 144.314C1015.98 139.949 1020.09 134.556 1023.94 127.88C1026.76 123.001 1029.33 118.379 1031.64 113.757C1032.41 116.581 1033.44 118.892 1034.72 120.947C1037.55 125.055 1041.14 127.11 1045.77 127.11C1049.62 127.11 1053.21 125.055 1056.55 121.204C1059.89 117.352 1062.71 112.73 1064.77 107.337C1066.82 101.945 1067.85 96.8088 1068.36 91.673C1072.73 92.7002 1077.09 93.2138 1081.46 93.2138C1090.7 93.2138 1095.33 91.673 1095.33 88.5916C1095.33 87.3076 1095.07 86.5373 1094.3 86.0237ZM504.972 36.4638C512.676 23.3676 519.096 14.3801 524.488 9.50113C525.002 15.4072 523.461 23.1108 519.352 32.3552C515.501 41.5995 510.365 50.3303 504.202 58.5475C498.039 66.7647 492.133 73.1844 486.227 77.5497C491.363 63.1697 497.525 49.5599 504.972 36.4638ZM556.073 81.6583C555.303 82.9423 554.532 83.9694 554.019 84.483C542.977 100.917 536.044 110.418 532.705 112.986C532.962 107.337 534.503 101.688 537.071 96.0384C539.639 90.3891 542.72 85.7669 546.058 82.4287C549.396 79.0905 552.735 77.2929 555.559 77.2929C556.586 77.2929 557.357 78.0633 557.614 79.0905C557.614 79.3472 557.1 80.3744 556.073 81.6583ZM606.403 114.014C606.146 114.27 605.89 114.27 605.89 114.014C605.119 113.243 604.862 110.932 604.862 107.08C604.862 102.201 605.89 97.3224 607.944 92.1866C609.998 87.0509 612.309 82.9423 614.877 79.604C617.445 76.5226 619.756 74.7251 621.81 74.7251C622.838 74.7251 623.608 74.9819 624.122 75.4954C624.892 76.009 625.405 76.5226 625.662 77.0362C625.919 77.5497 626.433 78.0633 626.946 79.0905C626.946 79.0905 626.946 79.0905 626.946 79.3472C616.675 100.917 609.741 112.473 606.403 114.014ZM774.342 81.1448C773.828 81.9151 773.315 82.6855 773.058 83.1991C765.354 94.4977 760.476 100.917 758.421 102.715C758.678 98.8631 759.705 95.0113 761.503 91.1595C763.3 87.3076 765.355 84.2262 767.666 81.9151C769.977 79.604 772.288 78.3201 774.085 78.3201C774.856 78.3201 775.369 78.8337 775.626 79.604C775.369 79.604 775.112 80.3744 774.342 81.1448ZM864.218 36.9774C871.921 23.8812 878.341 14.8937 883.733 10.0147C884.247 15.9208 882.706 23.6244 878.598 32.8688C874.746 42.1131 869.61 50.8439 863.447 59.0611C857.284 67.2782 851.378 73.6979 845.472 78.0633C850.351 63.6832 856.771 50.0735 864.218 36.9774ZM915.318 82.1719C914.548 83.4558 913.778 84.483 913.264 84.9966C902.222 101.431 895.032 110.932 891.951 113.5C892.207 107.851 893.748 102.201 896.316 96.552C898.884 90.9027 901.965 86.2805 905.304 82.9423C908.642 79.604 911.98 77.8065 914.805 77.8065C915.832 77.8065 916.602 78.5769 916.859 79.604C916.859 79.8608 916.345 80.888 915.318 82.1719ZM965.392 114.527C965.135 114.784 964.878 114.784 964.878 114.527C964.108 113.757 963.851 111.446 963.851 107.594C963.851 102.715 964.878 97.8359 966.932 92.7002C968.987 87.5644 971.298 83.4558 973.866 80.1176C976.434 77.0362 978.745 75.2386 980.799 75.2386C981.826 75.2386 982.596 75.4954 983.11 76.009C983.88 76.5226 984.394 77.0362 984.651 77.5497C984.908 78.0633 985.421 78.5769 985.935 79.604C985.935 79.604 985.935 79.604 985.935 79.8608C975.92 101.688 968.987 112.986 965.392 114.527Z" fill="#6D2E45"/>
<path d="M1159.22 113.633C1158.69 113.633 1158.3 113.464 1158.06 113.126C1157.77 112.788 1157.67 112.354 1157.77 111.823L1167.98 64.0168C1168.08 63.4856 1168.32 63.051 1168.71 62.713C1169.14 62.375 1169.6 62.206 1170.08 62.206H1177.04C1177.52 62.206 1177.88 62.375 1178.12 62.713C1178.41 63.051 1178.51 63.4856 1178.41 64.0168L1177.83 66.7693C1179.33 65.224 1180.97 63.9685 1182.76 63.0027C1184.55 61.9887 1186.86 61.4817 1189.71 61.4817C1192.18 61.4817 1194.28 61.8921 1196.01 62.713C1197.8 63.4856 1199.2 64.6446 1200.22 66.1898C1201.28 67.6867 1201.98 69.4976 1202.32 71.6223C1202.65 73.6987 1202.61 76.0165 1202.17 78.5758C1202.03 79.4933 1201.86 80.3142 1201.66 81.0385C1201.52 81.7629 1201.33 82.5838 1201.08 83.5013C1200.46 85.964 1199.61 88.2577 1198.55 90.3824C1197.49 92.4588 1196.18 94.2696 1194.64 95.8149C1193.09 97.3118 1191.31 98.4949 1189.28 99.3641C1187.3 100.185 1185.05 100.595 1182.54 100.595C1179.93 100.595 1177.76 100.161 1176.02 99.2916C1174.33 98.3741 1173.08 97.1428 1172.26 95.5976L1168.78 111.823C1168.68 112.354 1168.42 112.788 1167.98 113.126C1167.6 113.464 1167.16 113.633 1166.68 113.633H1159.22ZM1180.51 91.9035C1182.25 91.9035 1183.72 91.5172 1184.93 90.7445C1186.19 89.9236 1187.2 88.8613 1187.97 87.5575C1188.8 86.2537 1189.45 84.8292 1189.93 83.284C1190.17 82.5596 1190.36 81.8112 1190.51 81.0385C1190.65 80.2659 1190.78 79.5174 1190.87 78.7931C1191.06 77.2479 1191.06 75.8234 1190.87 74.5196C1190.73 73.2158 1190.24 72.1776 1189.42 71.405C1188.6 70.5841 1187.32 70.1736 1185.58 70.1736C1183.8 70.1736 1182.23 70.5841 1180.88 71.405C1179.57 72.2259 1178.51 73.2641 1177.69 74.5196C1176.87 75.7751 1176.26 77.1272 1175.88 78.5758C1175.64 79.445 1175.42 80.3384 1175.23 81.2558C1175.03 82.1733 1174.86 83.0908 1174.72 84.0083C1174.48 85.3604 1174.48 86.64 1174.72 87.8472C1175.01 89.0062 1175.61 89.9719 1176.53 90.7445C1177.45 91.5172 1178.78 91.9035 1180.51 91.9035ZM1219.56 100.595C1217.15 100.595 1215.05 100.209 1213.26 99.4365C1211.52 98.6156 1210.15 97.4567 1209.13 95.9597C1208.12 94.4145 1207.44 92.6037 1207.1 90.5272C1206.81 88.4025 1206.89 86.0606 1207.32 83.5013C1207.47 82.5838 1207.61 81.7629 1207.76 81.0385C1207.95 80.2659 1208.14 79.445 1208.33 78.5758C1208.96 76.0648 1209.81 73.7711 1210.87 71.6947C1211.93 69.6183 1213.24 67.8316 1214.78 66.3347C1216.33 64.7894 1218.11 63.6063 1220.14 62.7854C1222.22 61.9162 1224.54 61.4817 1227.09 61.4817C1230.09 61.4817 1232.36 61.9404 1233.9 62.8579C1235.45 63.7271 1236.66 64.8136 1237.53 66.1174L1237.96 64.0168C1238.06 63.4856 1238.3 63.051 1238.68 62.713C1239.12 62.375 1239.58 62.206 1240.06 62.206H1246.94C1247.47 62.206 1247.86 62.375 1248.1 62.713C1248.39 63.051 1248.49 63.4856 1248.39 64.0168L1241.15 98.0603C1241.05 98.5914 1240.81 99.026 1240.42 99.3641C1240.04 99.7021 1239.58 99.8711 1239.05 99.8711H1232.17C1231.63 99.8711 1231.22 99.7021 1230.93 99.3641C1230.69 99.026 1230.62 98.5914 1230.72 98.0603L1231.22 95.5976C1229.77 97.0462 1228.18 98.2534 1226.44 99.2192C1224.7 100.137 1222.41 100.595 1219.56 100.595ZM1223.69 91.9035C1225.53 91.9035 1227.07 91.493 1228.33 90.6721C1229.63 89.8512 1230.67 88.813 1231.44 87.5575C1232.26 86.302 1232.87 84.9499 1233.25 83.5013C1233.49 82.5838 1233.71 81.6663 1233.9 80.7488C1234.1 79.8313 1234.27 78.938 1234.41 78.0688C1234.65 76.7167 1234.65 75.4612 1234.41 74.3023C1234.17 73.0951 1233.59 72.1051 1232.67 71.3325C1231.8 70.5599 1230.5 70.1736 1228.76 70.1736C1227.07 70.1736 1225.62 70.5841 1224.41 71.405C1223.21 72.1776 1222.22 73.2158 1221.45 74.5196C1220.67 75.8234 1220.07 77.2479 1219.63 78.7931C1219.44 79.5174 1219.25 80.2659 1219.05 81.0385C1218.86 81.8112 1218.72 82.5596 1218.62 83.284C1218.43 84.8292 1218.38 86.2537 1218.48 87.5575C1218.62 88.8613 1219.1 89.9236 1219.92 90.7445C1220.74 91.5172 1222 91.9035 1223.69 91.9035ZM1251.74 99.8711C1251.25 99.8711 1250.87 99.7021 1250.58 99.3641C1250.29 99.026 1250.19 98.5914 1250.29 98.0603L1257.53 64.0168C1257.63 63.5339 1257.89 63.1235 1258.33 62.7854C1258.76 62.3991 1259.22 62.206 1259.7 62.206H1266.8C1267.29 62.206 1267.65 62.3991 1267.89 62.7854C1268.18 63.1235 1268.28 63.5339 1268.18 64.0168L1267.6 66.9141C1268.76 65.4655 1270.21 64.3307 1271.95 63.5098C1273.73 62.6406 1275.91 62.206 1278.47 62.206H1282.3C1282.79 62.206 1283.15 62.375 1283.39 62.713C1283.68 63.051 1283.78 63.4856 1283.68 64.0168L1282.3 70.246C1282.21 70.7772 1281.94 71.2118 1281.51 71.5498C1281.12 71.8878 1280.69 72.0569 1280.2 72.0569H1273.9C1271.73 72.0569 1269.92 72.6605 1268.47 73.8677C1267.07 75.0266 1266.13 76.6926 1265.64 78.8655L1261.52 98.0603C1261.42 98.5914 1261.15 99.026 1260.72 99.3641C1260.33 99.7021 1259.87 99.8711 1259.34 99.8711H1251.74ZM1295.81 100.595C1293.4 100.595 1291.3 100.209 1289.51 99.4365C1287.77 98.6156 1286.4 97.4567 1285.38 95.9597C1284.37 94.4145 1283.69 92.6037 1283.36 90.5272C1283.07 88.4025 1283.14 86.0606 1283.57 83.5013C1283.72 82.5838 1283.86 81.7629 1284.01 81.0385C1284.2 80.2659 1284.39 79.445 1284.59 78.5758C1285.22 76.0648 1286.06 73.7711 1287.12 71.6947C1288.18 69.6183 1289.49 67.8316 1291.03 66.3347C1292.58 64.7894 1294.37 63.6063 1296.39 62.7854C1298.47 61.9162 1300.79 61.4817 1303.35 61.4817C1306.34 61.4817 1308.61 61.9404 1310.16 62.8579C1311.7 63.7271 1312.91 64.8136 1313.78 66.1174L1314.21 64.0168C1314.31 63.4856 1314.55 63.051 1314.94 62.713C1315.37 62.375 1315.83 62.206 1316.31 62.206H1323.19C1323.73 62.206 1324.11 62.375 1324.35 62.713C1324.64 63.051 1324.74 63.4856 1324.64 64.0168L1317.4 98.0603C1317.3 98.5914 1317.06 99.026 1316.68 99.3641C1316.29 99.7021 1315.83 99.8711 1315.3 99.8711H1308.42C1307.89 99.8711 1307.48 99.7021 1307.19 99.3641C1306.94 99.026 1306.87 98.5914 1306.97 98.0603L1307.48 95.5976C1306.03 97.0462 1304.43 98.2534 1302.7 99.2192C1300.96 100.137 1298.66 100.595 1295.81 100.595ZM1299.94 91.9035C1301.78 91.9035 1303.32 91.493 1304.58 90.6721C1305.88 89.8512 1306.92 88.813 1307.69 87.5575C1308.51 86.302 1309.12 84.9499 1309.5 83.5013C1309.75 82.5838 1309.96 81.6663 1310.16 80.7488C1310.35 79.8313 1310.52 78.938 1310.66 78.0688C1310.9 76.7167 1310.9 75.4612 1310.66 74.3023C1310.42 73.0951 1309.84 72.1051 1308.92 71.3325C1308.06 70.5599 1306.75 70.1736 1305.01 70.1736C1303.32 70.1736 1301.87 70.5841 1300.67 71.405C1299.46 72.1776 1298.47 73.2158 1297.7 74.5196C1296.93 75.8234 1296.32 77.2479 1295.89 78.7931C1295.69 79.5174 1295.5 80.2659 1295.31 81.0385C1295.11 81.8112 1294.97 82.5596 1294.87 83.284C1294.68 84.8292 1294.63 86.2537 1294.73 87.5575C1294.87 88.8613 1295.36 89.9236 1296.18 90.7445C1297 91.5172 1298.25 91.9035 1299.94 91.9035ZM1358.17 100.595C1355.17 100.595 1352.66 100.257 1350.63 99.5814C1348.65 98.857 1347.11 97.9878 1346 96.9738C1344.89 95.9597 1344.11 94.9457 1343.68 93.9316C1343.29 92.8692 1343.15 91.9759 1343.24 91.2516C1343.34 90.7204 1343.58 90.2858 1343.97 89.9478C1344.4 89.6098 1344.84 89.4408 1345.27 89.4408H1352.23C1352.42 89.4408 1352.56 89.4649 1352.66 89.5132C1352.81 89.5615 1352.95 89.6822 1353.1 89.8754C1353.63 90.3099 1354.16 90.817 1354.69 91.3964C1355.27 91.9276 1355.97 92.3864 1356.79 92.7727C1357.61 93.159 1358.67 93.3521 1359.98 93.3521C1361.57 93.3521 1363 93.0383 1364.25 92.4105C1365.51 91.7345 1366.25 90.7928 1366.5 89.5856C1366.69 88.7164 1366.59 87.9921 1366.21 87.4126C1365.82 86.8332 1364.97 86.302 1363.67 85.8191C1362.37 85.3362 1360.41 84.805 1357.8 84.2256C1355.34 83.6461 1353.29 82.8735 1351.65 81.9077C1350.05 80.942 1348.94 79.7347 1348.32 78.2861C1347.69 76.7891 1347.59 75.0025 1348.03 72.9261C1348.46 71.0428 1349.43 69.232 1350.92 67.4936C1352.47 65.7552 1354.52 64.3307 1357.08 63.22C1359.69 62.0611 1362.73 61.4817 1366.21 61.4817C1368.86 61.4817 1371.13 61.8197 1373.01 62.4957C1374.9 63.1235 1376.4 63.9444 1377.51 64.9584C1378.66 65.9242 1379.46 66.9383 1379.9 68.0006C1380.38 69.0147 1380.55 69.908 1380.4 70.6806C1380.35 71.1635 1380.11 71.574 1379.68 71.912C1379.29 72.25 1378.88 72.419 1378.45 72.419H1372.07C1371.83 72.419 1371.61 72.3949 1371.42 72.3466C1371.28 72.25 1371.16 72.1293 1371.06 71.9844C1370.53 71.5981 1370.02 71.1635 1369.54 70.6806C1369.06 70.1495 1368.43 69.6907 1367.65 69.3044C1366.93 68.9181 1365.92 68.7249 1364.61 68.7249C1363.02 68.7249 1361.72 69.0871 1360.7 69.8114C1359.74 70.4875 1359.13 71.3567 1358.89 72.419C1358.75 73.0951 1358.82 73.7228 1359.11 74.3023C1359.45 74.8817 1360.22 75.4129 1361.43 75.8958C1362.68 76.3787 1364.64 76.8857 1367.29 77.4169C1370.43 77.9964 1372.85 78.8655 1374.54 80.0245C1376.27 81.1834 1377.39 82.5355 1377.87 84.0807C1378.4 85.5777 1378.47 87.1953 1378.09 88.9337C1377.65 91.2033 1376.56 93.2314 1374.83 95.0181C1373.09 96.7565 1370.82 98.1327 1368.02 99.1468C1365.22 100.113 1361.93 100.595 1358.17 100.595ZM1399.38 100.595C1395.71 100.595 1392.64 99.9194 1390.18 98.5673C1387.77 97.1669 1386.1 95.1147 1385.18 92.4105C1384.27 89.7063 1384.14 86.3986 1384.82 82.4872C1384.92 82.1009 1385.01 81.5939 1385.11 80.9661C1385.26 80.2901 1385.4 79.7589 1385.55 79.3726C1386.51 75.6544 1388.01 72.4673 1390.04 69.8114C1392.11 67.1073 1394.65 65.055 1397.64 63.6546C1400.68 62.206 1404.02 61.4817 1407.64 61.4817C1411.69 61.4817 1414.88 62.3267 1417.2 64.0168C1419.56 65.6586 1421.13 67.9282 1421.91 70.8255C1422.68 73.6745 1422.68 76.9582 1421.91 80.6764L1421.62 82.3423C1421.52 82.8252 1421.25 83.2357 1420.82 83.5737C1420.39 83.9117 1419.9 84.0807 1419.37 84.0807H1395.76C1395.76 84.129 1395.73 84.2256 1395.69 84.3705C1395.69 84.467 1395.66 84.5636 1395.61 84.6602C1395.37 86.2054 1395.37 87.6299 1395.61 88.9337C1395.85 90.1892 1396.41 91.2033 1397.28 91.9759C1398.2 92.7485 1399.38 93.1348 1400.83 93.1348C1401.99 93.1348 1403 92.9658 1403.87 92.6278C1404.74 92.2898 1405.46 91.8793 1406.04 91.3964C1406.67 90.9136 1407.15 90.5031 1407.49 90.1651C1408.02 89.6822 1408.43 89.3925 1408.72 89.2959C1409.01 89.151 1409.45 89.0786 1410.03 89.0786H1417.56C1418.04 89.0786 1418.41 89.2235 1418.65 89.5132C1418.89 89.7546 1418.94 90.1168 1418.79 90.5997C1418.6 91.3723 1418 92.3381 1416.98 93.497C1416.02 94.6076 1414.69 95.7183 1413 96.8289C1411.31 97.8913 1409.3 98.7846 1406.99 99.5089C1404.72 100.233 1402.18 100.595 1399.38 100.595ZM1397.21 77.4893H1411.4V77.3445C1411.84 75.6061 1411.89 74.1091 1411.55 72.8536C1411.26 71.5498 1410.66 70.5358 1409.74 69.8114C1408.82 69.0871 1407.61 68.7249 1406.12 68.7249C1404.62 68.7249 1403.27 69.0871 1402.06 69.8114C1400.85 70.5358 1399.84 71.5498 1399.02 72.8536C1398.25 74.1091 1397.64 75.6061 1397.21 77.3445V77.4893ZM1425.75 99.8711C1425.26 99.8711 1424.88 99.7021 1424.59 99.3641C1424.3 99.026 1424.2 98.5914 1424.3 98.0603L1431.54 64.0168C1431.64 63.4856 1431.9 63.051 1432.34 62.713C1432.77 62.375 1433.23 62.206 1433.71 62.206H1440.45C1440.93 62.206 1441.29 62.375 1441.54 62.713C1441.83 63.051 1441.92 63.4856 1441.83 64.0168L1441.32 66.4795C1442.19 65.562 1443.11 64.7411 1444.07 64.0168C1445.09 63.2442 1446.24 62.6406 1447.55 62.206C1448.9 61.7231 1450.47 61.4817 1452.26 61.4817C1455.06 61.4817 1457.33 62.037 1459.07 63.1476C1460.85 64.2582 1462.08 65.8276 1462.76 67.8557C1464.26 65.9725 1465.99 64.4514 1467.97 63.2925C1470 62.0853 1472.37 61.4817 1475.07 61.4817C1477.68 61.4817 1479.93 62.0611 1481.81 63.22C1483.69 64.3307 1485.02 66.0691 1485.79 68.4352C1486.61 70.7531 1486.64 73.747 1485.87 77.4169L1481.45 98.0603C1481.35 98.5914 1481.08 99.026 1480.65 99.3641C1480.26 99.7021 1479.83 99.8711 1479.35 99.8711H1472.18C1471.69 99.8711 1471.31 99.7021 1471.02 99.3641C1470.73 99.026 1470.63 98.5914 1470.73 98.0603L1475.07 77.9964C1475.46 76.0165 1475.51 74.4713 1475.22 73.3606C1474.98 72.2017 1474.47 71.3808 1473.7 70.8979C1472.92 70.415 1471.93 70.1736 1470.73 70.1736C1469.76 70.1736 1468.72 70.415 1467.61 70.8979C1466.5 71.3808 1465.49 72.2017 1464.57 73.3606C1463.65 74.4713 1463 76.0165 1462.61 77.9964L1458.27 98.0603C1458.17 98.5914 1457.93 99.026 1457.54 99.3641C1457.16 99.7021 1456.7 99.8711 1456.17 99.8711H1449.07C1448.54 99.8711 1448.13 99.7021 1447.84 99.3641C1447.6 99.026 1447.52 98.5914 1447.62 98.0603L1451.89 77.9964C1452.33 76.0165 1452.4 74.4713 1452.11 73.3606C1451.82 72.2017 1451.27 71.3808 1450.45 70.8979C1449.67 70.415 1448.73 70.1736 1447.62 70.1736C1446.61 70.1736 1445.54 70.4392 1444.43 70.9704C1443.32 71.4532 1442.31 72.25 1441.39 73.3606C1440.52 74.4713 1439.87 75.9924 1439.44 77.9239L1435.16 98.0603C1435.07 98.5914 1434.8 99.026 1434.37 99.3641C1433.98 99.7021 1433.54 99.8711 1433.06 99.8711H1425.75ZM1488.7 113.633C1488.17 113.633 1487.79 113.464 1487.54 113.126C1487.25 112.788 1487.16 112.354 1487.25 111.823L1497.47 64.0168C1497.56 63.4856 1497.81 63.051 1498.19 62.713C1498.63 62.375 1499.09 62.206 1499.57 62.206H1506.52C1507 62.206 1507.37 62.375 1507.61 62.713C1507.9 63.051 1507.99 63.4856 1507.9 64.0168L1507.32 66.7693C1508.82 65.224 1510.46 63.9685 1512.24 63.0027C1514.03 61.9887 1516.35 61.4817 1519.2 61.4817C1521.66 61.4817 1523.76 61.8921 1525.5 62.713C1527.29 63.4856 1528.69 64.6446 1529.7 66.1898C1530.76 67.6867 1531.46 69.4976 1531.8 71.6223C1532.14 73.6987 1532.09 76.0165 1531.66 78.5758C1531.51 79.4933 1531.34 80.3142 1531.15 81.0385C1531 81.7629 1530.81 82.5838 1530.57 83.5013C1529.94 85.964 1529.1 88.2577 1528.03 90.3824C1526.97 92.4588 1525.67 94.2696 1524.12 95.8149C1522.58 97.3118 1520.79 98.4949 1518.76 99.3641C1516.78 100.185 1514.54 100.595 1512.03 100.595C1509.42 100.595 1507.25 100.161 1505.51 99.2916C1503.82 98.3741 1502.56 97.1428 1501.74 95.5976L1498.26 111.823C1498.17 112.354 1497.9 112.788 1497.47 113.126C1497.08 113.464 1496.65 113.633 1496.16 113.633H1488.7ZM1510 91.9035C1511.74 91.9035 1513.21 91.5172 1514.42 90.7445C1515.67 89.9236 1516.69 88.8613 1517.46 87.5575C1518.28 86.2537 1518.93 84.8292 1519.41 83.284C1519.66 82.5596 1519.85 81.8112 1519.99 81.0385C1520.14 80.2659 1520.26 79.5174 1520.36 78.7931C1520.55 77.2479 1520.55 75.8234 1520.36 74.5196C1520.21 73.2158 1519.73 72.1776 1518.91 71.405C1518.09 70.5841 1516.81 70.1736 1515.07 70.1736C1513.28 70.1736 1511.71 70.5841 1510.36 71.405C1509.06 72.2259 1507.99 73.2641 1507.17 74.5196C1506.35 75.7751 1505.75 77.1272 1505.36 78.5758C1505.12 79.445 1504.9 80.3384 1504.71 81.2558C1504.52 82.1733 1504.35 83.0908 1504.2 84.0083C1503.96 85.3604 1503.96 86.64 1504.2 87.8472C1504.49 89.0062 1505.1 89.9719 1506.01 90.7445C1506.93 91.5172 1508.26 91.9035 1510 91.9035ZM1536.59 99.8711C1536.11 99.8711 1535.72 99.7021 1535.43 99.3641C1535.14 99.026 1535.04 98.5914 1535.14 98.0603L1542.38 64.0168C1542.48 63.5339 1542.75 63.1235 1543.18 62.7854C1543.61 62.3991 1544.07 62.206 1544.56 62.206H1551.65C1552.14 62.206 1552.5 62.3991 1552.74 62.7854C1553.03 63.1235 1553.13 63.5339 1553.03 64.0168L1552.45 66.9141C1553.61 65.4655 1555.06 64.3307 1556.8 63.5098C1558.58 62.6406 1560.76 62.206 1563.32 62.206H1567.15C1567.64 62.206 1568 62.375 1568.24 62.713C1568.53 63.051 1568.63 63.4856 1568.53 64.0168L1567.15 70.246C1567.06 70.7772 1566.79 71.2118 1566.36 71.5498C1565.97 71.8878 1565.54 72.0569 1565.05 72.0569H1558.75C1556.58 72.0569 1554.77 72.6605 1553.32 73.8677C1551.92 75.0266 1550.98 76.6926 1550.5 78.8655L1546.37 98.0603C1546.27 98.5914 1546 99.026 1545.57 99.3641C1545.18 99.7021 1544.72 99.8711 1544.19 99.8711H1536.59ZM1584.07 100.595C1580.4 100.595 1577.33 99.9194 1574.87 98.5673C1572.46 97.1669 1570.79 95.1147 1569.87 92.4105C1568.96 89.7063 1568.83 86.3986 1569.51 82.4872C1569.61 82.1009 1569.7 81.5939 1569.8 80.9661C1569.95 80.2901 1570.09 79.7589 1570.24 79.3726C1571.2 75.6544 1572.7 72.4673 1574.73 69.8114C1576.8 67.1073 1579.34 65.055 1582.33 63.6546C1585.37 62.206 1588.71 61.4817 1592.33 61.4817C1596.38 61.4817 1599.57 62.3267 1601.89 64.0168C1604.25 65.6586 1605.82 67.9282 1606.6 70.8255C1607.37 73.6745 1607.37 76.9582 1606.6 80.6764L1606.31 82.3423C1606.21 82.8252 1605.94 83.2357 1605.51 83.5737C1605.08 83.9117 1604.59 84.0807 1604.06 84.0807H1580.45C1580.45 84.129 1580.42 84.2256 1580.38 84.3705C1580.38 84.467 1580.35 84.5636 1580.3 84.6602C1580.06 86.2054 1580.06 87.6299 1580.3 88.9337C1580.54 90.1892 1581.1 91.2033 1581.97 91.9759C1582.89 92.7485 1584.07 93.1348 1585.52 93.1348C1586.68 93.1348 1587.69 92.9658 1588.56 92.6278C1589.43 92.2898 1590.15 91.8793 1590.73 91.3964C1591.36 90.9136 1591.84 90.5031 1592.18 90.1651C1592.71 89.6822 1593.12 89.3925 1593.41 89.2959C1593.7 89.151 1594.14 89.0786 1594.72 89.0786H1602.25C1602.73 89.0786 1603.1 89.2235 1603.34 89.5132C1603.58 89.7546 1603.63 90.1168 1603.48 90.5997C1603.29 91.3723 1602.68 92.3381 1601.67 93.497C1600.71 94.6076 1599.38 95.7183 1597.69 96.8289C1596 97.8913 1593.99 98.7846 1591.68 99.5089C1589.41 100.233 1586.87 100.595 1584.07 100.595ZM1581.9 77.4893H1596.09V77.3445C1596.53 75.6061 1596.58 74.1091 1596.24 72.8536C1595.95 71.5498 1595.35 70.5358 1594.43 69.8114C1593.51 69.0871 1592.3 68.7249 1590.81 68.7249C1589.31 68.7249 1587.96 69.0871 1586.75 69.8114C1585.54 70.5358 1584.53 71.5498 1583.71 72.8536C1582.93 74.1091 1582.33 75.6061 1581.9 77.3445V77.4893Z" fill="#6D2E46"/>
</svg>
