<svg width="2140" height="1373" viewBox="0 0 2140 1373" fill="none" xmlns="http://www.w3.org/2000/svg">
    <path d="M698.544 179.762L700.824 182.039C693.984 172.932 687.143 161.548 680.303 150.164C691.704 175.208 705.384 202.53 725.906 216.191C721.345 223.021 735.026 245.789 735.026 245.789C739.586 250.342 741.866 254.896 746.427 257.173C744.147 254.896 741.866 252.619 739.586 248.066C741.866 250.342 744.147 254.896 746.427 257.173C769.228 284.494 787.469 316.369 807.99 350.521C819.391 368.735 851.313 418.825 862.713 439.316C864.993 441.593 864.993 443.869 867.274 448.423C864.993 443.869 864.993 443.869 862.713 439.316C871.834 450.7 878.674 459.807 885.515 468.914C885.515 466.637 885.515 466.637 883.235 462.084L885.515 466.637C890.075 471.191 896.915 480.298 901.476 484.852C899.195 484.852 901.476 489.405 903.756 491.682V489.405C912.876 503.066 924.277 516.727 931.117 530.387C931.117 532.664 933.397 532.664 933.397 534.941L942.518 546.325C940.238 546.325 947.078 555.432 942.518 550.878C949.358 557.709 953.919 566.816 963.039 573.646C983.56 600.968 1006.36 630.566 1031.44 655.611C1040.56 664.718 1049.68 671.548 1061.08 682.932C1070.21 689.763 1083.89 698.87 1088.45 698.87C1097.57 705.7 1102.13 707.977 1113.53 714.807C1111.25 712.53 1124.93 721.638 1120.37 717.084C1115.81 710.254 1113.53 712.53 1108.97 705.7C1097.57 694.316 1083.89 685.209 1074.77 673.825C1063.36 662.441 1054.24 648.78 1042.84 637.396C1029.16 621.459 1015.48 600.968 1001.8 582.753C985.84 564.539 969.879 544.048 956.199 525.834C953.919 521.28 951.638 519.003 949.358 514.45C937.958 498.512 924.277 478.021 910.596 459.807C903.756 450.7 901.476 441.593 894.635 432.486L892.355 430.209C892.355 427.932 853.593 377.843 851.313 373.289L849.033 371.012C837.632 350.521 826.231 327.753 814.831 311.816C812.551 309.539 807.99 304.985 805.71 302.709C803.43 298.155 803.43 300.432 801.15 295.878C798.87 284.494 794.309 279.941 794.309 284.494C789.749 277.664 785.189 268.557 780.629 261.726C778.349 259.45 776.068 254.896 773.788 252.619C771.508 250.342 771.508 248.066 771.508 245.789C766.948 238.959 769.228 241.235 764.668 234.405C764.668 232.128 750.987 218.467 750.987 216.191C746.427 207.083 744.147 200.253 739.586 193.423C725.906 170.655 707.664 145.61 693.984 125.119C691.704 125.119 696.264 129.673 696.264 131.949C687.143 120.566 680.303 106.905 673.463 93.2441C671.182 90.9673 671.182 88.6905 671.182 86.4137C668.902 81.8601 668.902 84.1369 666.622 81.8601C662.062 77.3065 664.342 75.0298 659.782 70.4762L657.502 68.1994L655.222 63.6458C655.222 63.6458 655.222 61.369 652.941 61.369C650.661 59.0922 639.261 47.7083 636.98 45.4315C634.7 43.1547 634.7 43.1547 634.7 43.1547L632.42 40.8779L630.14 38.6012C627.86 36.3244 627.86 36.3244 625.58 34.0476C627.86 38.6012 630.14 45.4315 632.42 49.9851C630.14 47.7083 630.14 45.4315 627.86 43.1547C627.86 40.8779 623.3 34.0476 621.02 29.494C621.02 29.494 618.739 29.494 618.739 27.2172C618.739 24.9404 616.459 24.9404 616.459 22.6636C618.739 24.9404 618.739 27.2172 621.02 27.2172C621.02 27.2172 618.739 22.6636 618.739 20.3869C618.739 20.3869 616.459 15.8333 614.179 13.5565C616.459 13.5565 614.179 11.2797 614.179 9.00291C614.179 6.72612 611.899 6.72612 611.899 6.72612C609.619 6.72612 616.459 13.5565 611.899 11.2797L609.619 6.72612C609.619 4.44933 607.339 4.44933 607.339 2.17254C607.339 2.17254 607.339 2.17254 607.339 4.44933C605.059 2.17254 618.739 15.8333 616.459 11.2797C616.459 13.5565 605.059 -0.104244 605.059 2.17254C605.059 4.44933 602.779 2.17254 605.059 4.44933L607.339 6.72612C609.619 9.00291 607.339 11.2797 607.339 9.00291C605.059 4.44933 618.739 15.8333 614.179 13.5565V15.8333C611.899 15.8333 609.619 11.2797 609.619 9.00291L607.339 6.72612C605.059 4.44933 605.059 4.44933 605.059 4.44933C611.899 13.5565 595.938 2.17254 600.498 11.2797C600.498 6.72612 602.779 11.2797 605.059 15.8333C605.059 15.8333 605.059 18.1101 607.339 20.3869C609.619 22.6636 609.619 20.3869 609.619 22.6636C609.619 24.9404 611.899 27.2172 609.619 27.2172C611.899 29.494 611.899 29.494 611.899 31.7708C614.179 34.0476 611.899 31.7708 614.179 31.7708C616.459 34.0476 618.739 36.3244 621.02 40.8779C621.02 43.1547 621.02 45.4315 618.739 43.1547C616.459 38.6012 621.02 43.1547 618.739 38.6012C618.739 40.8779 616.459 34.0476 614.179 34.0476C614.179 36.3244 616.459 38.6012 618.739 40.8779C621.02 43.1547 623.3 47.7083 623.3 49.9851C623.3 49.9851 623.3 49.9851 621.02 49.9851L623.3 52.2619C625.58 52.2619 625.58 54.5387 625.58 56.8155L636.98 70.4762C639.261 72.753 636.98 72.753 639.261 75.0298C639.261 75.0298 623.3 56.8155 625.58 59.0922C625.58 61.369 643.821 79.5833 643.821 81.8601C643.821 84.1369 646.101 84.1369 646.101 84.1369C648.381 86.4137 643.821 84.1369 646.101 86.4137V88.6905C650.661 93.2441 652.941 97.7976 655.222 102.351C652.941 102.351 652.941 100.074 650.661 97.7976L648.381 95.5209C650.661 97.7976 650.661 100.074 652.941 102.351V104.628C652.941 106.905 659.782 113.735 662.062 118.289C662.062 120.566 662.062 118.289 664.342 120.566C666.622 125.119 668.902 129.673 671.182 134.226C673.463 134.226 673.463 134.226 673.463 131.949L675.743 136.503C671.182 134.226 678.023 145.61 673.463 141.057C673.463 143.333 675.743 145.61 678.023 145.61C678.023 145.61 680.303 145.61 680.303 147.887C687.143 156.994 684.863 154.717 687.143 159.271C687.143 159.271 687.143 159.271 684.863 159.271C689.423 163.824 687.143 163.824 689.423 168.378C691.704 170.655 696.264 177.485 696.264 177.485C698.544 179.762 698.544 179.762 698.544 179.762Z"
          fill="black"/>
    <path d="M675.742 660.165L671.182 657.888C682.583 669.272 693.983 680.656 707.664 689.763C684.863 662.441 655.221 632.843 627.86 621.459C627.86 616.906 605.058 589.584 602.778 591.861C595.938 587.307 591.378 582.754 584.537 578.2C589.097 580.477 591.378 585.031 595.938 587.307C591.378 585.031 586.817 580.477 584.537 578.2C548.055 548.602 511.573 514.45 475.091 475.745C454.57 455.254 399.847 398.334 379.326 377.843C377.045 375.566 372.485 371.013 370.205 368.736C374.765 373.289 374.765 373.289 379.326 380.12C365.645 368.736 351.964 357.352 340.563 348.245C342.843 350.521 342.843 350.521 345.124 357.352L340.563 350.521C333.723 345.968 322.322 334.584 315.482 330.03C317.762 330.03 313.202 325.477 308.641 320.923V323.2C294.961 307.262 276.72 291.325 263.039 277.664C260.759 275.387 260.759 273.111 258.479 273.111L251.638 259.45C253.918 259.45 242.518 248.066 249.358 252.62C237.957 243.512 228.837 234.405 219.716 225.298C183.234 195.7 146.752 161.548 112.55 129.673V131.95C98.8695 120.566 87.4689 111.459 73.7881 97.7979C62.3874 88.6908 46.4265 75.03 39.5861 72.7533C28.1855 61.3693 21.3451 56.8157 9.94446 45.4318C12.2246 49.9854 -3.73632 36.3246 0.823936 43.155C7.66433 52.2622 9.94446 52.2622 14.5047 59.0925C44.1464 90.9676 73.7881 122.843 105.71 152.441C128.511 172.932 149.032 195.7 171.834 216.191C196.915 238.959 221.997 261.727 242.518 282.218C247.078 286.771 249.358 291.325 253.918 295.878C272.159 314.093 294.961 336.861 317.762 357.352C329.163 368.736 336.003 377.843 347.404 386.95L349.684 389.227C349.684 391.504 415.808 448.423 420.368 452.977L424.928 455.254C447.729 478.022 468.251 503.066 488.772 521.281C493.332 525.834 500.172 528.111 502.453 530.388C504.733 534.941 507.013 532.664 511.573 537.218C520.694 550.879 527.534 555.432 522.974 548.602C532.094 557.709 541.215 564.54 548.055 573.647C552.615 575.923 554.896 580.477 559.456 582.754C561.736 585.031 564.016 587.307 566.296 589.584C575.417 596.415 570.856 594.138 579.977 603.245C579.977 605.522 602.778 621.459 605.058 623.736H602.778C611.899 632.843 616.459 641.95 625.58 648.781C650.661 673.825 682.583 701.147 707.664 721.638C709.944 721.638 703.104 717.084 703.104 714.808C716.785 728.468 730.466 742.129 744.146 758.067C746.426 760.343 748.707 764.897 748.707 767.174C753.267 771.727 750.987 769.451 755.547 774.004V776.281C760.107 780.834 760.107 785.388 764.668 789.942C764.668 789.942 766.948 792.218 769.228 794.495C769.228 794.495 773.788 799.049 771.508 801.326L773.788 803.602C776.068 805.879 792.029 821.817 796.589 824.093C798.87 826.37 801.15 828.647 798.869 826.37L801.15 830.924L803.43 835.477V837.754C805.71 840.031 807.99 842.308 807.99 844.584C805.71 840.031 801.15 830.924 796.589 824.093C798.87 826.37 801.15 830.924 803.43 833.201C805.71 837.754 807.99 844.585 812.55 849.138C812.55 849.138 814.83 849.138 817.11 853.692C817.11 855.968 819.391 855.969 819.391 858.245C817.111 855.969 817.111 853.692 814.83 851.415C814.83 851.415 817.111 858.245 819.391 860.522C819.391 860.522 821.671 867.352 823.951 869.629C821.671 869.629 823.951 871.906 823.951 874.183C823.951 876.46 826.231 876.46 826.231 876.46C828.511 876.46 821.671 867.352 826.231 869.629C826.231 869.629 828.511 874.183 828.511 876.46C828.511 878.736 830.791 881.013 830.791 883.29V881.013C833.071 883.29 819.391 865.076 821.671 869.629C821.671 867.352 835.352 885.567 833.071 883.29C833.071 881.013 835.352 883.29 833.071 881.013L830.791 878.736C830.791 876.46 830.791 874.183 830.791 874.183C833.071 878.736 819.391 862.799 821.671 867.352V865.076C823.951 867.352 826.231 871.906 826.231 871.906C826.231 871.906 828.511 874.183 828.511 876.46C830.791 878.736 830.791 881.013 830.791 878.736C826.231 867.352 839.912 883.29 835.352 871.906C835.352 876.46 833.071 871.906 830.791 865.076C830.791 865.076 830.791 862.799 828.511 858.245C826.231 855.969 826.231 855.968 826.231 855.968C826.231 853.692 823.951 851.415 823.951 851.415C821.671 849.138 821.671 846.861 819.391 844.584C817.111 842.308 819.391 844.584 817.11 844.584C814.83 840.031 812.55 835.477 810.27 833.201C810.27 830.924 807.99 826.37 812.55 828.647C817.11 833.201 810.27 828.647 814.83 833.201C814.83 828.647 819.391 837.754 819.391 837.754C819.391 835.477 817.111 830.924 814.83 828.647C812.55 826.37 807.99 821.817 807.99 817.263C807.99 817.263 807.99 814.986 810.27 817.263L807.99 812.71C805.71 810.433 805.71 810.433 803.43 808.156L787.469 789.942C785.189 787.665 785.189 785.388 782.909 783.111C782.909 783.111 787.469 789.942 792.029 794.495C796.589 799.049 801.15 805.879 801.15 803.602C801.15 801.326 776.068 776.281 776.068 774.004C773.788 771.727 771.508 769.45 771.508 771.727C769.228 769.45 773.788 771.727 771.508 769.451L769.228 767.174C764.668 762.62 760.107 755.79 753.267 751.236C755.547 751.236 757.827 753.513 760.107 755.79C760.107 755.79 762.387 758.067 764.668 758.067C762.387 755.79 760.107 751.236 755.547 748.959L753.267 746.683C753.267 744.406 753.267 744.406 753.267 746.683C753.267 744.406 741.866 735.299 737.306 730.745C735.026 728.468 737.306 730.745 735.026 728.468C730.466 721.638 725.905 719.361 721.345 712.531C719.065 712.531 719.065 712.531 721.345 714.808L716.785 710.254C721.345 712.531 709.944 701.147 716.785 703.424C716.785 701.147 712.224 698.87 709.944 696.593C709.944 696.593 707.664 696.593 705.384 694.317C700.824 689.763 703.104 692.04 698.544 687.486C698.544 685.209 698.544 687.486 700.824 687.486C693.983 682.933 696.264 682.933 691.703 678.379C687.143 676.102 682.583 669.272 680.303 671.549C673.462 662.441 673.462 662.441 675.742 660.165Z"
          fill="black"/>
    <path d="M1952.62 195.7L1950.34 200.253C1959.46 188.869 1970.86 175.209 1982.26 163.825C1954.9 188.869 1927.53 218.468 1916.13 245.789C1911.57 245.789 1886.49 268.557 1886.49 270.834C1881.93 277.664 1877.37 282.218 1875.09 289.048C1877.37 284.494 1881.93 282.218 1884.21 277.664C1881.93 282.218 1877.37 286.771 1875.09 289.048C1847.73 327.753 1813.53 361.905 1777.05 400.611C1756.52 421.102 1704.08 478.021 1681.28 498.512C1679 500.789 1674.44 505.343 1672.16 507.62C1676.72 503.066 1676.72 503.066 1683.56 498.512C1672.16 512.173 1660.76 525.834 1651.64 537.218C1653.92 534.941 1653.92 534.941 1660.76 532.664L1653.92 537.218C1649.36 544.048 1637.96 555.432 1633.4 562.263C1633.4 559.986 1628.84 564.539 1626.56 569.093L1628.84 566.816C1615.16 582.754 1599.2 600.968 1585.51 614.629C1583.23 616.905 1583.23 616.905 1580.95 619.182L1569.55 632.843C1569.55 630.566 1558.15 644.227 1562.71 635.12C1555.87 646.504 1544.47 655.611 1537.63 666.995C1521.67 685.209 1505.71 701.147 1492.03 721.638C1478.35 739.852 1462.39 760.343 1448.71 778.557H1450.99C1441.87 792.218 1432.75 805.879 1423.63 821.816C1419.06 835.477 1412.22 855.968 1414.5 860.522C1409.94 876.459 1409.94 883.29 1405.38 899.227C1407.66 894.674 1403.1 915.165 1405.38 908.334C1409.94 899.227 1407.66 896.95 1412.22 890.12C1419.06 869.629 1425.91 851.415 1435.03 833.2C1439.59 824.093 1444.15 814.986 1450.99 808.156C1457.83 799.049 1464.67 792.218 1471.51 783.111C1489.75 760.343 1507.99 735.298 1528.51 712.531C1549.03 687.486 1571.83 662.441 1590.07 639.673C1594.63 635.12 1599.2 632.843 1603.76 628.289C1622 607.798 1642.52 585.03 1660.76 564.539C1669.88 553.155 1679 546.325 1690.4 534.941L1692.68 532.664C1694.96 532.664 1749.68 464.361 1754.24 462.084L1756.52 457.53C1779.33 434.762 1804.41 414.271 1822.65 393.78C1824.93 389.227 1829.49 382.396 1831.77 380.119C1836.33 377.843 1834.05 375.566 1838.61 371.012C1852.29 361.905 1856.85 355.075 1850.01 359.628C1859.13 350.521 1865.97 341.414 1872.81 332.307C1875.09 327.753 1879.65 325.477 1881.93 320.923C1884.21 316.369 1886.49 316.369 1888.77 314.093C1895.61 304.985 1893.33 309.539 1902.45 300.432C1904.73 298.155 1918.41 277.664 1922.97 275.387V277.664C1932.09 268.557 1938.93 261.727 1948.06 252.619C1970.86 225.298 1995.94 193.423 2016.46 168.378C2016.46 166.101 2011.9 175.209 2009.62 172.932C2021.02 159.271 2036.98 143.334 2048.38 129.673C2050.66 127.396 2055.22 125.119 2055.22 122.842C2059.78 118.289 2057.5 120.566 2059.78 116.012H2062.06C2066.62 109.182 2068.9 109.182 2073.46 104.628C2073.46 104.628 2075.74 102.351 2075.74 100.075L2080.3 95.521L2082.58 93.2442C2084.86 90.9674 2096.26 70.4763 2098.54 68.1995C2098.54 59.0924 2098.54 59.0924 2098.54 59.0924L2100.82 56.8156L2103.1 54.5388H2105.38C2107.66 52.262 2107.66 49.9852 2109.94 47.7084C2103.1 52.262 2098.54 59.0924 2091.7 63.6459C2093.98 59.0924 2098.54 56.8156 2098.54 54.5388C2100.82 52.262 2107.66 45.4316 2112.22 43.1548C2112.22 43.1548 2112.22 40.878 2114.5 38.6013C2116.78 38.6013 2116.78 36.3245 2119.06 34.0477C2116.78 36.3245 2114.5 38.6013 2114.5 40.878C2116.78 40.878 2121.34 34.0477 2121.34 34.0477C2121.34 34.0477 2125.91 29.4941 2128.19 24.9405C2128.19 27.2173 2130.47 22.6637 2132.75 22.6637C2135.03 20.387 2135.03 18.1102 2135.03 18.1102C2135.03 15.8334 2128.19 24.9405 2130.47 22.6637C2130.47 22.6637 2135.03 18.1102 2135.03 15.8334C2137.31 13.5566 2137.31 11.2798 2139.59 9.00301C2139.59 9.00301 2139.59 11.2798 2137.31 11.2798C2139.59 9.00301 2128.19 31.7709 2130.47 27.2173C2128.19 27.2173 2141.87 6.72622 2139.59 9.00301C2137.31 11.2798 2139.59 6.72622 2137.31 9.00301V11.2798C2135.03 13.5566 2132.75 13.5566 2132.75 13.5566C2137.31 9.00301 2125.91 29.4941 2128.19 24.9405L2125.91 27.2173C2125.91 24.9405 2130.47 20.387 2132.75 20.387C2132.75 20.387 2132.75 18.1102 2135.03 15.8334C2137.31 13.5566 2137.31 11.2798 2137.31 11.2798C2128.19 22.6637 2137.31 -0.10414 2128.19 9.00301C2132.75 6.72622 2128.19 11.2798 2125.91 15.8334C2125.91 15.8334 2123.63 18.1102 2119.06 20.387C2116.78 22.6637 2119.06 22.6637 2119.06 22.6637C2116.78 24.9405 2114.5 27.2173 2114.5 24.9405C2114.5 27.2173 2112.22 27.2173 2109.94 29.4941C2107.66 31.7709 2109.94 29.4941 2109.94 31.7709C2107.66 34.0477 2103.1 38.6013 2100.82 43.1548C2098.54 43.1548 2096.26 45.4316 2096.26 43.1548C2098.54 36.3245 2093.98 45.4316 2098.54 40.878C2096.26 43.1548 2103.1 36.3245 2103.1 34.0477C2100.82 34.0477 2098.54 38.6013 2096.26 40.878C2093.98 43.1548 2089.42 47.7084 2087.14 49.9852C2087.14 49.9852 2084.86 49.9852 2087.14 47.7084L2084.86 49.9852C2084.86 52.262 2082.58 52.262 2080.3 54.5388C2080.3 54.5388 2066.62 75.0299 2066.62 72.7531C2064.34 75.0299 2064.34 75.0299 2062.06 77.3067C2062.06 77.3067 2080.3 52.262 2078.02 54.5388C2075.74 56.8156 2055.22 84.137 2055.22 86.4138C2052.94 90.9674 2050.66 93.2442 2052.94 93.2442C2050.66 95.521 2052.94 90.9674 2050.66 93.2442L2048.38 95.521C2046.1 100.075 2039.26 106.905 2034.7 113.735C2034.7 111.458 2034.7 109.182 2036.98 104.628L2039.26 100.075C2036.98 102.351 2034.7 104.628 2032.42 109.182L2030.14 113.735C2027.86 113.735 2027.86 113.735 2030.14 113.735C2027.86 113.735 2021.02 127.396 2016.46 131.95C2014.18 134.226 2016.46 131.95 2014.18 134.226C2009.62 138.78 2005.06 143.334 2000.5 150.164C2000.5 152.441 2000.5 152.441 2002.78 150.164L1995.94 154.717C1998.22 150.164 1986.82 161.548 1989.1 156.994C1986.82 156.994 1984.54 161.548 1982.26 163.825C1982.26 163.825 1982.26 166.101 1979.98 168.378C1975.42 172.932 1977.7 170.655 1973.14 175.209C1970.86 175.209 1973.14 175.209 1973.14 172.932C1968.58 179.762 1968.58 177.485 1964.02 182.039C1961.74 186.592 1954.9 193.423 1957.18 193.423C1952.62 197.976 1952.62 195.7 1952.62 195.7Z"
          fill="black"/>
    <path d="M894.635 840.03L899.195 837.753C883.234 849.137 867.273 858.244 849.032 869.628C887.795 849.137 931.117 821.816 953.918 799.048C958.479 801.325 994.961 787.664 997.241 787.664C1004.08 783.11 1013.2 780.833 1020.04 778.557C1015.48 780.833 1008.64 783.11 1004.08 785.387C1010.92 783.11 1015.48 780.833 1020.04 778.557C1045.12 767.173 1074.77 760.342 1102.13 744.405C1115.81 735.298 1129.49 723.914 1138.61 712.53C1147.73 701.146 1159.13 687.485 1168.25 676.101C1193.33 648.78 1243.49 569.092 1264.02 539.494C1266.3 534.94 1270.86 530.387 1273.14 525.833C1268.58 532.664 1268.58 532.664 1264.02 539.494C1275.42 521.28 1282.26 503.065 1291.38 484.851C1289.1 487.128 1289.1 487.128 1282.26 493.958L1286.82 484.851C1289.1 475.744 1300.5 457.53 1305.06 450.699C1305.06 452.976 1309.62 446.146 1311.9 441.592L1309.62 443.869C1323.3 421.101 1336.98 396.056 1348.38 375.565C1350.66 373.288 1350.66 371.012 1352.94 371.012L1362.06 352.797C1362.06 355.074 1371.18 336.86 1368.9 348.244C1375.74 332.306 1384.86 318.645 1391.7 304.985C1419.06 257.172 1448.71 204.806 1473.79 154.717C1482.91 136.502 1489.75 120.565 1501.15 100.074C1507.99 84.1363 1519.39 61.3684 1519.39 54.5381C1528.51 36.3237 1530.79 29.4934 1539.91 11.2791C1535.35 15.8327 1546.75 -6.93522 1542.19 2.17193C1535.35 6.7255 1535.35 9.00229 1528.51 18.1094C1501.15 61.3684 1476.07 106.904 1448.71 152.44C1432.75 184.315 1414.5 216.19 1396.26 248.065C1378.02 282.217 1355.22 318.645 1341.54 348.244C1336.98 355.074 1334.7 359.628 1330.14 366.458C1314.18 393.779 1295.94 427.931 1277.7 457.53C1277.7 457.53 1277.7 457.53 1277.7 455.253C1268.58 471.19 1259.46 482.574 1252.62 498.512C1252.62 498.512 1252.62 500.789 1250.34 503.065C1248.06 505.342 1195.61 594.137 1193.33 598.69L1191.05 603.244C1186.49 610.074 1179.65 619.182 1175.09 626.012C1168.25 632.842 1163.69 639.673 1156.85 646.503C1145.45 660.164 1134.05 673.824 1122.65 687.485C1118.09 694.316 1113.53 698.869 1111.25 703.423C1106.69 705.699 1106.69 707.976 1102.13 712.53C1086.17 719.36 1079.33 723.914 1088.45 721.637C1077.05 728.467 1063.36 733.021 1051.96 737.574C1047.4 739.851 1040.56 742.128 1036 744.405C1031.44 746.682 1029.16 746.682 1024.6 746.682C1013.2 751.235 1015.48 748.958 1001.8 753.512C997.241 753.512 969.879 767.173 965.319 769.45H967.599C951.638 776.28 940.237 778.557 926.557 787.664C890.075 810.432 851.312 837.753 817.11 860.521C817.11 862.798 823.951 855.967 826.231 855.967C817.111 862.798 803.43 867.351 794.309 881.012C789.749 885.566 785.189 892.396 782.909 899.227C780.628 903.78 780.628 906.057 780.628 910.61C780.628 915.164 780.628 915.164 778.348 917.441C776.068 919.718 776.068 924.271 773.788 924.271C771.508 928.825 773.788 926.548 771.508 931.101H769.228C766.948 933.378 766.948 935.655 764.667 937.932C762.387 940.209 760.107 940.209 757.827 944.762C757.827 944.762 755.547 947.039 753.267 949.316C750.987 949.316 746.426 956.146 746.426 956.146C746.426 958.423 744.146 958.423 744.146 960.7C744.146 962.977 737.306 969.807 732.746 978.914C728.185 985.744 725.905 992.575 725.905 997.128C725.905 1001.68 728.185 1006.24 728.185 1006.24V1008.51C732.746 1013.07 735.026 1015.34 732.746 1013.07C735.026 1015.34 737.306 1017.62 739.586 1017.62L746.426 1022.17C746.426 1022.17 748.707 1024.45 746.426 1024.45C750.987 1026.73 753.267 1026.73 755.547 1029C750.987 1026.73 748.707 1024.45 741.866 1019.9C735.026 1015.34 730.466 1010.79 728.185 1003.96C730.466 1008.51 737.306 1015.34 741.866 1017.62C748.707 1022.17 755.547 1026.73 764.667 1031.28C766.948 1031.28 769.228 1031.28 771.508 1033.56C773.788 1035.83 776.068 1035.83 780.628 1035.83C776.068 1035.83 771.508 1033.56 769.228 1033.56C769.228 1035.83 778.348 1038.11 782.909 1038.11C785.189 1038.11 792.029 1038.11 798.869 1038.11C796.589 1040.39 803.43 1038.11 805.71 1038.11C810.27 1038.11 810.27 1035.83 810.27 1035.83C810.27 1033.56 796.589 1038.11 801.15 1035.83C803.43 1035.83 807.99 1035.83 812.55 1033.56C812.55 1033.56 810.27 1033.56 812.55 1031.28C817.11 1031.28 819.391 1029 821.671 1029C821.671 1029 819.391 1029 817.11 1029C819.391 1029 812.55 1031.28 805.71 1033.56C798.869 1035.83 792.029 1035.83 796.589 1035.83C794.309 1035.83 826.231 1026.73 821.671 1026.73C819.391 1026.73 823.951 1024.45 819.391 1024.45L817.11 1026.73C812.55 1026.73 810.27 1026.73 812.55 1026.73C819.391 1024.45 792.029 1035.83 798.869 1033.56H796.589C798.869 1033.56 805.71 1031.28 810.27 1031.28C810.27 1031.28 814.83 1029 817.11 1029C819.391 1029 823.951 1026.73 821.671 1026.73C803.43 1031.28 830.791 1017.62 814.83 1019.9C821.671 1019.9 812.55 1022.17 805.71 1024.45C805.71 1024.45 801.15 1024.45 796.589 1024.45C792.029 1024.45 794.309 1024.45 792.029 1024.45C789.749 1024.45 785.189 1024.45 785.189 1022.17C780.628 1022.17 780.628 1019.9 776.068 1019.9C771.508 1019.9 776.068 1019.9 773.788 1019.9C769.228 1017.62 762.387 1015.34 757.827 1013.07C755.547 1010.79 753.267 1008.51 755.547 1008.51C762.387 1013.07 750.987 1008.51 760.107 1013.07C757.827 1010.79 766.948 1015.34 769.228 1015.34C766.948 1013.07 762.387 1010.79 757.827 1010.79C753.267 1008.51 746.426 1006.24 744.146 1003.96C746.426 1003.96 744.146 1003.96 746.426 1003.96C744.146 1003.96 744.146 1001.68 741.866 1001.68C739.586 999.405 739.586 997.128 739.586 997.128C739.586 997.128 741.866 992.575 744.146 985.744C746.426 978.914 750.987 974.36 750.987 974.36C753.267 972.084 755.547 972.084 755.547 967.53C755.547 967.53 753.267 969.807 753.267 972.084C750.987 974.361 748.707 978.914 746.426 983.468C741.866 990.298 739.586 997.128 739.586 994.852C741.866 992.575 746.426 985.744 750.987 976.637C757.827 967.53 764.667 958.423 764.667 958.423C773.788 953.869 776.068 951.593 776.068 951.593C780.628 947.039 776.068 953.869 778.348 951.593L780.628 949.316C785.189 942.485 792.029 933.378 792.029 924.271C792.029 926.548 792.029 928.825 789.749 935.655L787.469 940.209C789.749 935.655 792.029 931.102 792.029 926.548L794.309 924.271C794.309 921.994 794.309 921.994 794.309 924.271C796.589 919.718 796.589 906.057 801.15 899.227C801.15 896.95 801.15 899.226 803.43 896.95C807.99 890.119 812.55 887.843 821.671 883.289C823.951 881.012 823.951 881.012 819.391 881.012L826.231 876.459C821.671 881.012 837.632 869.628 833.071 876.459C835.352 876.459 839.912 874.182 842.192 871.905C842.192 871.905 842.192 869.628 846.752 867.351C853.593 865.075 851.312 865.075 855.873 862.798C858.153 862.798 855.873 865.075 855.873 865.075C862.713 858.244 862.713 862.798 869.553 858.244C874.114 855.968 883.234 849.137 880.954 846.86C892.355 837.753 894.635 837.753 894.635 840.03Z"
          fill="black"/>
    <path d="M974.439 1188.38C974.439 1186.1 974.439 1183.83 974.439 1181.55C969.879 1188.38 967.599 1195.21 976.719 1199.76C972.159 1199.76 969.879 1206.59 972.159 1206.59C972.159 1208.87 974.439 1208.87 974.439 1211.15C974.439 1211.15 974.439 1208.87 972.159 1208.87C972.159 1208.87 972.159 1211.15 974.439 1211.15C978.999 1217.98 978.999 1227.08 976.719 1236.19C976.719 1240.75 978.999 1258.96 983.56 1265.79C983.56 1265.79 983.56 1268.07 985.84 1268.07C985.84 1265.79 985.84 1265.79 983.56 1265.79C988.12 1268.07 990.4 1270.34 994.96 1272.62C997.24 1272.62 999.521 1274.9 1001.8 1274.9V1277.17C1004.08 1279.45 1010.92 1281.73 1013.2 1281.73C1015.48 1281.73 1015.48 1281.73 1017.76 1281.73C1017.76 1284 1020.04 1284 1017.76 1284C1020.04 1281.73 1024.6 1284 1026.88 1281.73C1036 1281.73 1045.12 1274.9 1049.68 1265.79C1051.96 1263.51 1049.68 1258.96 1054.24 1256.68C1054.24 1254.41 1054.24 1249.85 1051.96 1247.58C1051.96 1245.3 1051.96 1243.02 1051.96 1240.75C1049.68 1240.75 1051.96 1238.47 1049.68 1238.47C1047.4 1238.47 1049.68 1240.75 1047.4 1240.75C1042.84 1245.3 1040.56 1247.58 1036 1252.13C1033.72 1254.41 1031.44 1256.68 1029.16 1256.68C1026.88 1258.96 1022.32 1258.96 1020.04 1258.96C1020.04 1258.96 1020.04 1258.96 1017.76 1256.68C1015.48 1256.68 1010.92 1254.41 1008.64 1252.13C1006.36 1252.13 1006.36 1249.85 1006.36 1247.58C1006.36 1247.58 1004.08 1245.3 1001.8 1243.02C999.521 1240.75 997.24 1238.47 997.24 1238.47C997.24 1233.91 999.521 1229.36 999.521 1224.81L997.24 1222.53C997.24 1222.53 997.24 1222.53 997.24 1220.25C1001.8 1217.98 999.521 1215.7 997.24 1217.98C997.24 1215.7 997.24 1213.42 997.24 1213.42C997.24 1213.42 997.24 1211.15 994.96 1211.15C994.96 1211.15 994.96 1211.15 994.96 1208.87C994.96 1206.59 994.96 1206.59 994.96 1206.59C997.24 1206.59 992.68 1202.04 992.68 1202.04C992.68 1199.76 994.96 1197.49 994.96 1195.21C994.96 1188.38 994.96 1183.83 994.96 1177C992.68 1177 994.96 1179.27 992.68 1179.27C992.68 1177 994.96 1172.44 994.96 1170.16C994.96 1170.16 994.96 1167.89 997.24 1167.89C997.24 1167.89 997.24 1167.89 997.24 1165.61H999.521C999.521 1165.61 1001.8 1163.33 999.521 1163.33L994.96 1158.78C994.96 1158.78 994.96 1158.78 992.68 1158.78C992.68 1158.78 992.68 1158.78 994.96 1158.78C994.96 1158.78 994.96 1158.78 994.96 1156.5C994.96 1158.78 992.68 1158.78 992.68 1161.06V1158.78L994.96 1156.5C994.96 1156.5 994.96 1156.5 994.96 1158.78C997.24 1158.78 994.96 1156.5 997.24 1156.5C997.24 1156.5 997.24 1156.5 997.24 1154.23C999.521 1154.23 997.24 1154.23 999.521 1154.23C997.24 1154.23 999.521 1156.5 997.24 1154.23C997.24 1154.23 997.24 1154.23 997.24 1151.95C997.24 1151.95 997.24 1151.95 994.96 1151.95C994.96 1151.95 994.96 1151.95 994.96 1149.67L999.521 1151.95C999.521 1151.95 994.96 1147.4 994.96 1149.67H992.68H990.4L994.96 1151.95V1149.67C994.96 1149.67 994.96 1149.67 992.68 1149.67C992.68 1151.95 985.84 1147.4 985.84 1149.67C988.12 1149.67 988.12 1149.67 988.12 1151.95C988.12 1151.95 985.84 1151.95 985.84 1154.23C985.84 1154.23 985.84 1154.23 983.56 1154.23C983.56 1154.23 983.56 1154.23 983.56 1156.5V1158.78C981.28 1158.78 983.56 1158.78 981.28 1156.5C981.28 1156.5 981.28 1156.5 981.28 1158.78V1161.06C981.28 1161.06 981.28 1161.06 978.999 1161.06L981.28 1165.61C981.28 1165.61 981.28 1165.61 981.28 1167.89L978.999 1163.33L981.28 1170.16H978.999C978.999 1170.16 978.999 1172.44 978.999 1174.72C978.999 1174.72 976.719 1174.72 976.719 1172.44V1174.72C974.439 1174.72 978.999 1177 976.719 1179.27C976.719 1181.55 974.439 1181.55 974.439 1183.83H976.719C974.439 1183.83 974.439 1186.1 972.159 1183.83C972.159 1183.83 972.159 1183.83 972.159 1186.1H974.439C974.439 1186.1 974.439 1186.1 974.439 1188.38C974.439 1188.38 974.439 1188.38 972.159 1188.38C972.159 1190.66 969.879 1190.66 969.879 1190.66C974.439 1186.1 974.439 1188.38 974.439 1188.38Z"
          fill="black"/>
    <path d="M919.716 949.316C919.716 944.762 921.996 937.932 921.996 931.101C915.156 944.762 910.595 960.7 915.156 972.084C910.595 972.084 903.755 983.467 906.035 985.744C906.035 988.021 906.035 992.575 906.035 994.851C906.035 1006.24 903.755 1017.62 903.755 1029C903.755 1040.39 903.755 1049.49 906.035 1060.88C906.035 1072.26 908.315 1104.14 908.315 1115.52C908.315 1117.8 908.315 1120.07 908.315 1120.07C908.315 1117.8 908.315 1117.8 908.315 1113.24C910.595 1120.07 912.875 1126.91 915.156 1133.74C915.156 1131.46 915.156 1131.46 917.436 1129.18V1133.74C919.716 1136.01 921.996 1145.12 924.276 1147.4C921.996 1147.4 924.276 1149.67 926.556 1151.95V1149.67C928.836 1154.23 933.397 1158.78 935.677 1161.06C940.237 1165.61 940.237 1165.61 944.797 1170.16C947.077 1170.16 947.077 1172.44 947.077 1172.44C949.358 1174.72 953.918 1174.72 958.478 1174.72C956.198 1176.99 967.599 1176.99 963.038 1176.99C972.159 1176.99 978.999 1174.72 985.84 1167.89C990.4 1163.33 994.96 1156.5 994.96 1151.95C994.96 1147.4 997.24 1142.84 997.24 1138.29C999.52 1129.18 999.52 1117.8 1001.8 1108.69C1001.8 1101.86 1001.8 1095.03 1004.08 1088.2C1004.08 1081.37 1004.08 1074.54 1001.8 1069.99C1001.8 1063.16 1001.8 1060.88 1001.8 1054.05C999.52 1056.32 1001.8 1047.22 999.52 1051.77C997.24 1056.32 999.52 1056.32 997.24 1058.6C990.4 1079.09 988.12 1095.03 983.559 1108.69C981.279 1120.07 978.999 1131.46 976.719 1145.12C976.719 1149.67 976.719 1149.67 974.439 1149.67L972.159 1151.95C969.879 1154.23 967.599 1154.23 965.318 1154.23C963.038 1154.23 963.038 1151.95 963.038 1151.95C960.758 1149.67 956.198 1145.12 951.638 1140.57C949.358 1138.29 947.077 1133.74 944.797 1129.18C942.517 1124.63 944.797 1120.07 942.517 1115.52C942.517 1115.52 942.517 1115.52 942.517 1113.24C944.797 1113.24 935.677 1079.09 935.677 1076.82V1074.54C935.677 1060.88 937.957 1047.22 935.677 1035.83C933.397 1033.56 933.397 1031.28 931.116 1029C931.116 1026.73 931.116 1026.73 931.116 1024.45C933.397 1017.62 933.397 1015.34 931.116 1017.62C931.116 1013.07 931.116 1008.51 931.116 1006.24C931.116 1003.96 931.116 1001.68 931.116 1001.68C931.116 999.405 931.117 999.405 933.397 999.405C933.397 994.851 933.397 997.128 935.677 992.575C937.957 992.575 937.957 981.191 937.957 978.914C940.237 974.36 942.517 969.807 944.797 965.253C949.358 949.316 949.358 933.378 951.638 921.994C949.358 921.994 951.638 924.271 949.357 924.271C951.638 917.441 953.918 910.61 956.198 903.78C956.198 901.503 958.478 901.503 958.478 901.503C960.758 899.226 958.478 899.226 958.478 899.226H960.758C960.758 896.95 963.038 896.95 963.038 894.673V892.396C965.318 892.396 963.038 890.119 965.318 890.119C965.318 890.119 965.318 890.119 965.318 887.842C965.318 885.566 965.318 876.458 965.318 874.182C965.318 871.905 965.318 871.905 965.318 871.905V869.628V867.351C965.318 867.351 965.318 867.351 967.599 867.351C967.599 865.074 967.599 865.075 967.599 865.075C965.318 867.351 963.038 871.905 960.758 874.182C960.758 871.905 963.038 871.905 963.038 869.628C965.318 867.351 965.318 865.074 967.599 862.798C967.599 862.798 965.318 860.521 967.599 860.521C969.879 860.521 967.599 858.244 969.879 858.244C969.879 860.521 969.879 860.521 969.879 862.798C972.159 862.798 972.159 860.521 972.159 858.244C972.159 858.244 972.159 855.967 972.159 853.691C972.159 853.691 972.159 853.691 974.439 851.414C974.439 849.137 974.439 849.137 974.439 849.137C972.159 849.137 972.159 853.691 972.159 851.414C972.159 851.414 972.159 849.137 972.159 846.86C972.159 846.86 972.159 846.86 969.879 846.86C969.879 844.583 969.879 844.583 969.879 842.307C969.879 842.307 969.879 842.307 969.879 844.583C969.879 842.307 972.159 855.967 972.159 853.691C972.159 853.691 969.879 842.307 969.879 844.583H967.599V846.86C967.599 849.137 965.318 849.137 965.318 849.137C965.318 846.86 969.879 855.967 967.599 853.691V849.137V846.86V844.583C967.599 851.414 960.758 840.03 960.758 844.583C963.038 842.307 963.038 844.583 963.038 849.137C963.038 849.137 960.758 849.137 960.758 851.414C960.758 853.691 960.758 851.414 960.758 853.691L958.478 855.967C958.478 858.244 958.478 858.244 958.478 858.244C958.478 860.521 956.198 862.798 956.198 862.798C956.198 862.798 953.918 865.074 953.918 862.798C953.918 860.521 956.198 865.075 956.198 860.521C953.918 860.521 956.198 858.244 956.198 858.244C956.198 858.244 953.918 860.521 953.918 862.798C953.918 865.074 953.918 867.351 951.638 867.351V869.628V871.905V881.012C951.638 883.289 949.357 883.289 949.357 883.289C949.357 883.289 951.638 869.628 951.638 871.905C951.638 871.905 949.358 887.842 947.077 887.842V890.119C947.077 892.396 947.077 890.119 944.797 890.119H942.517C942.517 892.396 940.237 896.95 940.237 899.226C940.237 899.226 937.957 896.95 937.957 894.673V892.396C937.957 894.673 935.677 894.673 937.957 896.95C935.677 896.95 937.957 903.78 935.677 906.057C935.677 906.057 935.677 906.057 935.677 908.333C933.397 910.61 933.397 912.887 933.397 917.441C933.397 919.717 933.397 919.717 935.677 917.441V919.717C933.397 917.441 933.397 924.271 931.116 921.994C931.116 921.994 931.116 924.271 931.116 926.548C931.116 926.548 933.397 926.548 931.116 928.825C931.116 931.101 931.116 931.101 928.836 933.378C928.836 933.378 928.836 933.378 926.556 933.378C926.556 935.655 924.276 935.655 924.276 937.932C924.276 940.209 924.276 942.485 924.276 942.485C921.996 949.316 921.996 949.316 919.716 949.316Z"
          fill="black"/>
    <path d="M1115.81 1293.11C1118.09 1293.11 1120.37 1293.11 1124.93 1293.11C1118.09 1290.84 1111.25 1286.28 1104.41 1295.39C1104.41 1290.84 1099.85 1286.28 1097.57 1288.56C1095.29 1288.56 1095.29 1288.56 1093.01 1288.56C1083.89 1288.56 1077.05 1281.73 1077.05 1272.62C1074.77 1268.07 1074.77 1252.13 1077.05 1247.58V1245.3C1077.05 1247.58 1077.05 1247.58 1074.77 1247.58C1074.77 1243.02 1072.49 1240.75 1072.49 1238.47C1072.49 1238.47 1070.21 1238.47 1070.21 1240.75V1238.47C1067.92 1236.19 1070.21 1233.92 1070.21 1231.64C1070.21 1231.64 1072.49 1231.64 1072.49 1229.36C1074.77 1224.81 1074.77 1220.25 1077.05 1215.7C1077.05 1215.7 1077.05 1215.7 1079.33 1215.7L1081.61 1211.15C1081.61 1211.15 1083.89 1208.87 1083.89 1211.15C1083.89 1206.59 1086.17 1204.32 1086.17 1202.04C1090.73 1192.93 1097.57 1181.55 1099.85 1172.44C1102.13 1167.89 1099.85 1163.34 1104.41 1161.06C1104.41 1156.5 1106.69 1151.95 1104.41 1149.67C1106.69 1145.12 1106.69 1142.84 1106.69 1140.57C1104.41 1140.57 1106.69 1138.29 1104.41 1138.29C1102.13 1138.29 1102.13 1138.29 1102.13 1138.29C1095.29 1145.12 1088.45 1154.23 1081.61 1161.06C1079.33 1167.89 1074.77 1172.44 1070.21 1179.27C1065.64 1186.1 1063.36 1192.93 1061.08 1199.76C1061.08 1202.04 1058.8 1202.04 1056.52 1202.04C1054.24 1208.87 1049.68 1215.7 1047.4 1224.81C1047.4 1229.36 1045.12 1231.64 1042.84 1236.19C1042.84 1236.19 1042.84 1243.02 1042.84 1249.85C1042.84 1256.68 1045.12 1261.24 1045.12 1263.51C1045.12 1263.51 1045.12 1263.51 1045.12 1265.79C1045.12 1274.9 1045.12 1284 1049.68 1293.11C1051.96 1293.11 1054.24 1295.39 1054.24 1295.39C1054.24 1297.67 1056.52 1295.39 1056.52 1297.67C1056.52 1304.5 1061.08 1304.5 1058.8 1302.22C1061.08 1304.5 1065.64 1306.77 1067.92 1309.05C1070.21 1309.05 1070.21 1309.05 1072.49 1311.33C1074.77 1311.33 1074.77 1311.33 1074.77 1313.6C1077.05 1313.6 1077.05 1315.88 1079.33 1315.88C1079.33 1318.16 1088.45 1315.88 1088.45 1315.88C1093.01 1315.88 1093.01 1320.43 1097.57 1320.43C1106.69 1322.71 1118.09 1320.43 1129.49 1315.88C1129.49 1313.6 1127.21 1318.16 1127.21 1315.88C1131.77 1313.6 1140.89 1311.33 1145.45 1304.5L1147.73 1302.22C1147.73 1302.22 1147.73 1302.22 1147.73 1299.94H1150.01C1150.01 1297.67 1152.29 1299.94 1152.29 1297.67C1152.29 1297.67 1152.29 1297.67 1152.29 1295.39C1154.57 1295.39 1152.29 1293.11 1154.57 1295.39C1154.57 1295.39 1154.57 1288.56 1154.57 1286.28V1284C1154.57 1284 1154.57 1284 1156.85 1284V1281.73C1154.57 1284 1152.29 1284 1150.01 1284L1152.29 1281.73C1154.57 1281.73 1154.57 1279.45 1156.85 1279.45V1277.17C1156.85 1277.17 1156.85 1277.17 1159.13 1277.17V1279.45C1161.41 1279.45 1161.41 1277.17 1161.41 1277.17V1274.9C1161.41 1274.9 1161.41 1274.9 1163.69 1274.9C1163.69 1274.9 1161.41 1277.17 1161.41 1274.9C1161.41 1274.9 1161.41 1272.62 1163.69 1272.62V1270.34C1163.69 1270.34 1163.69 1270.34 1161.41 1270.34H1159.13C1159.13 1268.07 1161.41 1277.17 1161.41 1274.9V1272.62C1161.41 1272.62 1161.41 1272.62 1161.41 1270.34V1268.07C1159.13 1270.34 1156.85 1263.51 1154.57 1265.79C1156.85 1265.79 1156.85 1265.79 1154.57 1268.07H1152.29H1150.01C1150.01 1268.07 1150.01 1268.07 1147.73 1270.34L1145.45 1272.62C1145.45 1272.62 1143.17 1272.62 1143.17 1270.34C1143.17 1268.07 1145.45 1272.62 1145.45 1270.34C1143.17 1270.34 1145.45 1268.07 1145.45 1268.07C1145.45 1268.07 1143.17 1268.07 1143.17 1270.34C1143.17 1270.34 1143.17 1272.62 1140.89 1272.62V1279.45C1140.89 1279.45 1138.61 1279.45 1138.61 1281.73L1140.89 1274.9L1138.61 1284V1286.28C1138.61 1286.28 1138.61 1286.28 1136.33 1286.28C1136.33 1288.56 1136.33 1288.56 1134.05 1290.84C1134.05 1290.84 1134.05 1290.84 1134.05 1293.11C1134.05 1293.11 1134.05 1290.84 1131.77 1290.84C1131.77 1290.84 1131.77 1290.84 1131.77 1288.56C1131.77 1288.56 1131.77 1288.56 1131.77 1290.84C1129.49 1290.84 1131.77 1293.11 1129.49 1293.11C1127.21 1293.11 1127.21 1293.11 1124.93 1293.11V1295.39H1122.65C1122.65 1293.11 1120.37 1293.11 1120.37 1290.84C1120.37 1290.84 1120.37 1290.84 1118.09 1290.84V1293.11C1115.81 1293.11 1118.09 1293.11 1115.81 1293.11C1115.81 1293.11 1115.81 1293.11 1115.81 1290.84C1113.53 1293.11 1113.53 1288.56 1113.53 1290.84C1118.09 1295.39 1118.09 1295.39 1115.81 1293.11C1115.81 1295.39 1115.81 1295.39 1115.81 1293.11Z"
          fill="black"/>
    <path d="M974.44 1270.34V1272.62C974.44 1263.51 974.44 1254.41 972.16 1245.3C972.16 1256.68 972.16 1268.07 969.879 1274.9C967.599 1284 967.599 1290.83 965.319 1297.67C960.759 1295.39 947.078 1302.22 947.078 1304.5C944.798 1304.5 944.798 1306.77 942.518 1306.77C940.238 1306.77 937.958 1309.05 937.958 1309.05C937.958 1309.05 942.518 1306.77 944.798 1306.77C942.518 1309.05 937.958 1309.05 937.958 1309.05C937.958 1309.05 935.678 1309.05 933.397 1309.05C931.117 1309.05 926.557 1306.77 924.277 1306.77C917.436 1304.5 912.876 1299.94 908.316 1295.39C903.756 1290.83 899.195 1286.28 896.915 1279.45C894.635 1272.62 890.075 1261.24 883.235 1254.41C878.674 1249.85 871.834 1245.3 862.713 1240.75C860.433 1240.75 858.153 1238.47 855.873 1238.47C853.593 1238.47 853.593 1238.47 853.593 1236.19C851.313 1236.19 851.313 1233.91 851.313 1231.64C849.033 1229.36 846.752 1220.25 846.752 1213.42C846.752 1206.59 844.472 1199.76 844.472 1195.21C844.472 1192.93 844.472 1190.66 842.192 1186.1C842.192 1190.66 842.192 1190.66 842.192 1195.21C837.632 1183.83 835.352 1172.44 833.072 1165.61C833.072 1167.89 833.072 1167.89 833.072 1172.44V1167.89C830.792 1163.33 828.511 1154.23 826.231 1147.4C828.511 1147.4 826.231 1145.12 826.231 1140.57V1142.84C823.951 1136.01 821.671 1126.91 819.391 1120.08C817.111 1115.52 814.831 1108.69 812.55 1104.14C812.55 1101.86 812.55 1101.86 812.55 1099.58C812.55 1097.31 810.27 1092.75 810.27 1090.48C812.55 1090.48 810.27 1081.37 812.55 1085.92C810.27 1079.09 812.55 1069.99 810.27 1063.16C810.27 1056.33 812.55 1047.22 814.831 1042.66C817.111 1038.11 819.391 1033.56 826.231 1029C828.511 1026.73 833.072 1024.45 835.352 1022.17L839.912 1019.9C842.192 1017.62 844.472 1017.62 846.752 1015.34C851.313 1010.79 858.153 1006.24 862.713 999.406C869.554 992.575 876.394 983.468 887.795 976.638C894.635 969.807 903.756 960.7 906.036 956.147C915.156 949.316 917.436 947.04 924.277 940.209C921.997 940.209 924.277 940.209 924.277 937.933L926.557 935.656L933.397 937.933C935.678 937.933 940.238 940.209 935.677 937.933L933.397 935.656L931.117 933.379L924.277 937.933C919.717 940.209 919.717 940.209 915.156 942.486C892.355 956.147 867.274 972.084 844.472 988.022C839.912 992.575 837.632 994.852 833.072 997.129C830.792 999.406 830.792 999.406 830.792 999.406L823.951 1003.96C814.831 1008.51 803.43 1015.34 796.59 1029C792.029 1035.83 792.029 1042.66 792.029 1047.22C792.029 1051.77 789.749 1058.6 789.749 1065.43C789.749 1076.82 789.749 1088.2 792.029 1097.31C794.309 1101.86 792.029 1106.41 794.309 1108.69C796.59 1113.25 796.59 1117.8 798.87 1122.35L801.15 1129.18C801.15 1131.46 803.43 1131.46 803.43 1133.74C805.71 1140.57 807.99 1149.67 810.27 1158.78C812.55 1167.89 812.55 1177 814.831 1186.1V1188.38C814.831 1188.38 817.111 1204.32 821.671 1217.98C823.951 1224.81 826.231 1231.64 828.511 1238.47C830.792 1245.3 835.352 1249.85 835.352 1249.85L837.632 1252.13C839.912 1254.41 842.192 1256.68 846.752 1258.96C849.033 1258.96 851.313 1261.24 853.593 1261.24C858.153 1263.51 860.433 1265.79 862.713 1268.07C867.274 1272.62 871.834 1279.45 874.114 1286.28C876.394 1290.83 880.954 1295.39 883.235 1297.67C885.515 1302.22 885.515 1299.94 887.795 1304.5C892.355 1315.88 899.195 1318.16 894.635 1313.6C901.476 1318.16 908.316 1324.99 915.156 1327.26C917.436 1329.54 921.997 1329.54 924.277 1329.54C926.557 1329.54 928.837 1331.82 931.117 1331.82C935.677 1331.82 937.958 1331.82 940.238 1331.82C942.518 1331.82 944.798 1331.82 949.358 1329.54C951.638 1331.82 967.599 1318.16 969.879 1318.16C979 1313.6 985.84 1309.05 990.401 1299.94C999.521 1288.56 1001.8 1272.62 999.521 1258.96C999.521 1245.3 997.241 1231.64 992.681 1222.53C990.401 1222.53 994.961 1227.08 992.681 1229.36C988.12 1215.7 983.56 1202.04 976.72 1190.66C976.72 1188.38 974.44 1186.1 974.44 1183.83C972.16 1179.27 972.16 1181.55 969.879 1179.27V1177C965.319 1174.72 965.319 1170.16 960.759 1167.89C960.759 1167.89 958.479 1167.89 958.479 1165.61C958.479 1165.61 953.919 1163.33 953.919 1161.06C953.919 1161.06 951.638 1161.06 951.638 1158.78C949.358 1156.5 931.117 1151.95 928.837 1151.95C926.557 1151.95 924.277 1151.95 926.557 1151.95H924.277H921.997C921.997 1151.95 921.997 1151.95 921.997 1149.67C919.717 1149.67 917.436 1149.67 915.156 1149.67C919.717 1151.95 926.557 1154.23 931.117 1156.5C928.837 1156.5 924.277 1154.23 921.997 1154.23C919.717 1151.95 912.876 1149.67 910.596 1149.67C910.596 1149.67 908.316 1151.95 906.036 1149.67C906.036 1147.4 903.756 1149.67 901.476 1147.4C903.756 1147.4 906.036 1147.4 908.316 1147.4C908.316 1145.12 903.756 1145.12 901.476 1145.12C901.476 1145.12 896.915 1145.12 894.635 1145.12C896.915 1142.84 892.355 1145.12 890.075 1142.84C887.795 1142.84 887.795 1142.84 887.795 1142.84C887.795 1145.12 894.635 1142.84 892.355 1145.12C892.355 1145.12 887.795 1145.12 885.515 1145.12C885.515 1145.12 887.795 1145.12 885.515 1147.4C883.234 1147.4 880.954 1147.4 880.954 1147.4H883.235C880.954 1147.4 896.915 1142.84 894.635 1142.84C894.635 1142.84 878.674 1147.4 880.954 1147.4C883.234 1147.4 880.954 1149.67 880.954 1149.67H883.235C885.515 1149.67 885.515 1151.95 885.515 1151.95C880.954 1151.95 896.915 1147.4 892.355 1147.4H894.635C892.355 1147.4 890.075 1147.4 887.795 1147.4C887.795 1147.4 885.515 1147.4 885.515 1149.67C883.234 1149.67 880.954 1149.67 883.235 1151.95C892.355 1151.95 878.674 1158.78 885.515 1158.78C880.954 1156.5 885.515 1156.5 890.075 1156.5C890.075 1156.5 892.355 1158.78 894.635 1158.78C896.915 1158.78 896.915 1158.78 896.915 1158.78C899.195 1158.78 901.476 1158.78 899.195 1161.06C901.476 1161.06 901.476 1161.06 903.756 1161.06C906.036 1161.06 903.756 1161.06 906.036 1161.06C908.316 1161.06 912.876 1163.33 915.156 1163.33C915.156 1163.33 917.436 1165.61 915.156 1167.89C910.596 1167.89 917.436 1165.61 912.876 1165.61C915.156 1167.89 908.316 1165.61 908.316 1165.61C910.596 1165.61 912.876 1167.89 915.156 1167.89C917.436 1167.89 921.997 1167.89 924.277 1170.16C924.277 1170.16 924.277 1170.16 921.997 1170.16H924.277C926.557 1170.16 926.557 1170.16 926.557 1172.44C926.557 1172.44 931.117 1172.44 933.397 1174.72C937.958 1174.72 940.238 1177 940.238 1177C942.518 1177 942.518 1179.27 944.798 1179.27C944.798 1179.27 926.557 1170.16 928.837 1172.44C931.117 1172.44 951.638 1181.55 949.358 1183.83C951.638 1183.83 951.638 1186.1 951.638 1186.1C953.919 1188.38 949.358 1186.1 951.638 1188.38V1190.66C956.199 1192.93 958.479 1197.49 960.759 1202.04C958.479 1202.04 958.479 1199.76 956.199 1199.76L953.919 1197.49C956.199 1199.76 956.199 1202.04 958.479 1204.32V1206.59C958.479 1208.87 965.319 1215.7 965.319 1220.25C965.319 1220.25 965.319 1220.25 967.599 1222.53C969.879 1227.08 969.879 1231.64 969.879 1236.19C972.16 1238.47 972.16 1238.47 972.16 1236.19V1240.75C969.879 1238.47 972.16 1247.58 969.879 1245.3C969.879 1247.58 969.879 1247.58 969.879 1249.85C969.879 1249.85 972.16 1249.85 972.16 1252.13C972.16 1256.68 972.16 1254.41 972.16 1258.96C972.16 1258.96 972.16 1258.96 969.879 1258.96C972.16 1263.51 969.879 1263.51 969.879 1268.07C969.879 1270.34 969.879 1274.9 972.16 1274.9C976.72 1272.62 976.72 1272.62 974.44 1270.34Z"
          fill="black"/>
    <path d="M1264.02 1092.75L1266.3 1095.03C1257.18 1090.48 1245.78 1085.92 1236.65 1081.37C1245.78 1088.2 1257.18 1095.03 1268.58 1099.58C1277.7 1106.42 1286.82 1108.69 1298.22 1108.69C1298.22 1113.25 1314.18 1129.18 1316.46 1129.18C1321.02 1131.46 1325.58 1133.74 1330.14 1136.01C1325.58 1133.74 1323.3 1133.74 1321.02 1131.46C1323.3 1133.74 1327.86 1133.74 1330.14 1136.01C1343.82 1142.84 1357.5 1151.95 1371.18 1161.06C1384.86 1170.17 1396.26 1181.55 1400.82 1192.93C1403.1 1195.21 1403.1 1202.04 1403.1 1206.59C1403.1 1211.15 1403.1 1215.7 1398.54 1220.25C1389.42 1231.64 1375.74 1243.02 1368.9 1247.58C1366.62 1249.85 1364.34 1249.85 1362.06 1252.13C1366.62 1249.85 1366.62 1249.85 1368.9 1247.58C1364.34 1252.13 1359.78 1254.41 1357.5 1256.68C1355.22 1258.96 1350.66 1258.96 1348.38 1261.24C1350.66 1261.24 1350.66 1263.51 1352.94 1263.51C1350.66 1263.51 1350.66 1263.51 1348.38 1263.51C1346.1 1265.79 1336.98 1265.79 1332.42 1263.51C1334.7 1263.51 1330.14 1261.24 1327.86 1258.96V1261.24C1325.58 1258.96 1323.3 1258.96 1321.02 1256.68L1316.46 1247.58C1311.9 1243.02 1307.34 1236.19 1302.78 1231.64C1300.5 1231.64 1300.5 1231.64 1300.5 1229.36L1291.38 1220.25C1293.66 1220.25 1284.54 1211.15 1289.1 1215.7C1282.26 1211.15 1275.42 1202.04 1268.58 1197.49C1257.18 1186.1 1243.5 1177 1227.53 1170.17C1211.57 1163.33 1195.61 1158.78 1181.93 1151.95C1172.81 1147.4 1161.41 1145.12 1152.29 1136.01C1143.17 1131.46 1134.05 1120.08 1129.49 1117.8C1122.65 1108.69 1120.37 1104.14 1118.09 1092.75C1115.81 1095.03 1115.81 1081.37 1115.81 1088.2C1113.53 1097.31 1115.81 1097.31 1115.81 1104.14C1122.65 1138.29 1150.01 1161.06 1177.37 1174.72C1186.49 1179.27 1195.61 1181.55 1204.73 1186.1C1213.85 1190.66 1220.69 1195.21 1229.81 1199.76C1238.93 1204.32 1245.78 1211.15 1254.9 1217.98C1261.74 1224.81 1270.86 1231.64 1277.7 1238.47C1279.98 1240.75 1282.26 1245.3 1284.54 1247.58C1291.38 1254.41 1298.22 1261.24 1302.78 1268.07C1305.06 1270.34 1307.34 1272.62 1309.62 1274.9C1311.9 1277.17 1314.18 1279.45 1318.74 1279.45C1325.58 1281.73 1330.14 1284 1336.98 1284C1336.98 1284 1336.98 1284 1334.7 1284C1348.38 1286.28 1357.5 1286.28 1368.9 1279.45L1371.18 1277.17C1373.46 1277.17 1384.86 1268.07 1396.26 1256.68C1407.66 1245.3 1416.78 1231.64 1416.78 1229.36C1416.78 1227.09 1416.79 1227.09 1419.07 1224.81C1430.47 1199.76 1419.07 1170.17 1403.1 1156.5C1398.54 1154.23 1393.98 1151.95 1391.7 1149.67C1389.42 1147.4 1387.14 1147.4 1384.86 1145.12C1380.3 1136.01 1373.46 1133.74 1375.74 1138.29C1368.9 1133.74 1362.06 1129.18 1357.5 1124.63C1355.22 1122.35 1352.94 1122.35 1348.38 1120.08C1346.1 1117.8 1343.82 1117.8 1343.82 1115.52C1336.98 1110.97 1339.26 1113.25 1334.7 1106.42C1334.7 1104.14 1318.74 1097.31 1316.46 1095.03C1309.62 1090.48 1307.34 1083.65 1298.22 1079.09C1275.42 1065.43 1250.34 1056.33 1232.09 1047.22C1232.09 1049.5 1236.65 1049.5 1236.65 1051.77C1225.25 1047.22 1213.85 1040.39 1200.17 1033.56C1197.89 1031.28 1195.61 1031.28 1195.61 1029C1191.05 1026.73 1193.33 1029 1191.05 1026.73V1024.45C1188.77 1024.45 1186.49 1022.17 1186.49 1022.17C1184.21 1019.9 1181.93 1019.9 1179.65 1019.9C1179.65 1019.9 1177.37 1019.9 1175.09 1019.9C1175.09 1017.62 1168.25 1019.9 1168.25 1017.62C1165.97 1017.62 1165.97 1017.62 1163.69 1017.62C1161.41 1017.62 1154.57 1019.9 1150.01 1022.17C1145.45 1024.45 1140.89 1029 1138.61 1031.28C1136.33 1033.56 1136.33 1033.56 1136.33 1033.56L1134.05 1035.83L1131.77 1038.11H1129.49C1127.21 1040.39 1127.21 1042.67 1124.93 1042.67C1129.49 1038.11 1136.33 1035.83 1140.89 1033.56C1138.61 1035.83 1136.33 1038.11 1134.05 1038.11C1131.77 1040.39 1124.93 1042.67 1122.65 1047.22C1122.65 1047.22 1122.65 1049.5 1120.37 1051.77C1118.09 1051.77 1118.09 1054.05 1118.09 1056.33C1118.09 1054.05 1120.37 1051.77 1122.65 1049.5C1120.37 1049.5 1118.09 1054.05 1118.09 1056.33C1118.09 1056.33 1115.81 1060.88 1115.81 1065.43C1115.81 1063.16 1113.53 1067.71 1113.53 1069.99C1113.53 1072.26 1113.53 1074.54 1113.53 1072.26C1113.53 1072.26 1115.81 1065.43 1115.81 1067.71C1115.81 1067.71 1113.53 1072.26 1113.53 1074.54C1113.53 1074.54 1113.53 1072.26 1115.81 1074.54C1115.81 1076.82 1115.81 1079.09 1115.81 1081.37V1079.09C1115.81 1081.37 1115.81 1076.82 1113.53 1072.26C1113.53 1067.71 1113.53 1063.16 1113.53 1065.43C1113.53 1065.43 1113.53 1083.65 1115.81 1081.37C1115.81 1079.09 1118.09 1083.65 1118.09 1081.37V1079.09C1118.09 1076.82 1120.37 1074.54 1120.37 1076.82C1120.37 1081.37 1118.09 1063.16 1118.09 1067.71V1065.43C1118.09 1067.71 1118.09 1072.26 1115.81 1072.26C1115.81 1072.26 1115.81 1074.54 1115.81 1076.82C1115.81 1079.09 1115.81 1081.37 1115.81 1079.09C1115.81 1069.99 1122.65 1085.92 1122.65 1076.82C1120.37 1081.37 1120.37 1074.54 1122.65 1072.26C1122.65 1072.26 1124.93 1069.99 1124.93 1067.71C1124.93 1065.43 1124.93 1065.43 1124.93 1065.43C1124.93 1063.16 1127.21 1060.88 1127.21 1063.16C1127.21 1060.88 1129.49 1060.88 1129.49 1058.6C1129.49 1056.33 1129.49 1058.6 1129.49 1056.33C1131.77 1054.05 1134.05 1049.5 1136.33 1049.5C1138.61 1049.5 1140.89 1047.22 1140.89 1049.5C1138.61 1051.77 1140.89 1047.22 1138.61 1049.5C1140.89 1049.5 1136.33 1054.05 1136.33 1054.05C1138.61 1054.05 1138.61 1051.77 1140.89 1049.5C1143.17 1047.22 1145.45 1044.94 1147.73 1044.94C1147.73 1044.94 1147.73 1044.94 1147.73 1047.22L1150.01 1044.94C1150.01 1042.67 1152.29 1042.67 1152.29 1042.67C1152.29 1042.67 1154.57 1040.39 1159.13 1038.11C1161.41 1035.83 1165.97 1035.83 1165.97 1035.83C1168.25 1035.83 1168.25 1035.83 1170.53 1035.83C1170.53 1035.83 1165.97 1035.83 1161.41 1038.11C1156.85 1040.39 1154.57 1042.67 1154.57 1042.67C1154.57 1042.67 1159.13 1038.11 1165.97 1038.11C1170.53 1035.83 1177.37 1038.11 1177.37 1038.11C1179.65 1038.11 1179.65 1038.11 1179.65 1038.11C1181.93 1040.39 1177.37 1038.11 1179.65 1040.39L1181.93 1042.67C1186.49 1042.67 1191.05 1047.22 1195.61 1047.22C1193.33 1047.22 1193.33 1047.22 1188.77 1047.22H1186.49C1188.77 1049.5 1191.05 1049.5 1193.33 1049.5H1195.61C1195.61 1051.77 1207.01 1051.77 1209.29 1056.33C1211.57 1056.33 1209.29 1056.33 1211.57 1056.33C1216.13 1058.6 1218.41 1060.88 1222.97 1063.16C1225.25 1063.16 1225.25 1063.16 1222.97 1060.88L1227.53 1063.16C1222.97 1063.16 1234.37 1067.71 1229.81 1067.71C1229.81 1067.71 1232.09 1069.99 1234.37 1069.99C1234.37 1069.99 1234.37 1069.99 1238.93 1069.99C1241.21 1072.26 1241.21 1072.26 1243.5 1074.54C1243.5 1074.54 1243.5 1074.54 1243.5 1076.82C1248.06 1076.82 1245.78 1079.09 1250.34 1081.37C1252.62 1081.37 1259.46 1083.65 1259.46 1083.65C1266.3 1092.75 1264.02 1092.75 1264.02 1092.75Z"
          fill="black"/>
    <path d="M1339.26 1095.03L1336.98 1092.75C1346.1 1097.31 1355.22 1104.14 1364.34 1110.97C1346.1 1095.03 1325.58 1076.82 1305.06 1074.54C1305.06 1069.99 1286.82 1056.33 1284.54 1056.33C1279.98 1054.05 1275.42 1054.05 1270.86 1051.77C1273.14 1051.77 1277.7 1054.05 1279.98 1056.33C1275.42 1054.05 1273.14 1054.05 1270.86 1051.77C1250.34 1044.94 1238.93 1040.39 1225.25 1035.83C1220.69 1033.56 1218.41 1033.56 1213.85 1031.28L1207.01 1029C1204.73 1029 1204.73 1029 1202.45 1026.73C1200.17 1024.45 1195.61 1022.17 1191.05 1019.9C1186.49 1017.62 1184.21 1015.34 1181.93 1013.07C1177.37 1008.51 1170.53 999.405 1175.09 988.022C1177.37 976.638 1188.77 969.807 1195.61 967.53C1197.89 967.53 1200.17 965.254 1202.45 965.254C1200.17 965.254 1200.17 965.254 1195.61 967.53C1202.45 962.977 1209.29 960.7 1218.41 960.7C1216.13 960.7 1216.13 958.423 1213.85 958.423C1216.13 958.423 1216.13 958.423 1218.41 958.423C1222.97 956.147 1232.09 960.7 1236.65 962.977C1234.37 962.977 1238.93 965.254 1241.21 967.53L1238.93 965.254C1252.62 972.084 1266.3 976.638 1277.7 983.468C1279.98 983.468 1279.98 985.745 1279.98 985.745L1291.38 990.298C1289.1 990.298 1300.5 994.852 1293.66 994.852C1302.78 997.129 1309.62 1001.68 1318.74 1003.96C1332.42 1010.79 1350.66 1015.34 1364.34 1017.62C1378.02 1022.17 1393.98 1029 1407.66 1035.83C1416.78 1040.39 1428.19 1042.66 1437.31 1051.77C1446.43 1056.33 1455.55 1067.71 1457.83 1069.99C1462.39 1081.37 1464.67 1085.92 1469.23 1095.03C1469.23 1092.75 1473.79 1104.14 1473.79 1099.58C1473.79 1092.75 1471.51 1092.75 1473.79 1085.92C1473.79 1079.09 1471.51 1069.99 1466.95 1063.16C1462.39 1056.33 1457.83 1049.49 1453.27 1042.66C1441.87 1031.28 1428.19 1022.17 1416.78 1015.34C1398.54 1006.24 1378.02 997.129 1357.5 992.575C1336.98 988.022 1316.46 978.914 1298.22 972.084C1293.66 969.807 1291.38 967.53 1289.1 965.254C1279.98 960.7 1273.14 958.423 1261.74 953.87L1250.34 949.316C1245.77 947.039 1241.21 944.763 1234.37 942.486C1222.97 937.932 1213.85 935.655 1200.17 937.932C1200.17 937.932 1197.89 937.932 1197.89 940.209C1195.61 940.209 1179.65 944.763 1165.97 958.423C1152.29 972.084 1150.01 990.298 1150.01 992.575C1150.01 994.852 1150.01 994.852 1150.01 997.129C1147.73 1008.51 1152.29 1024.45 1161.41 1033.56C1165.97 1038.11 1170.53 1042.66 1175.09 1047.22C1179.65 1049.49 1184.21 1051.77 1188.77 1054.05C1193.33 1056.33 1200.17 1056.33 1202.45 1056.33C1204.73 1058.6 1207.01 1056.33 1209.29 1058.6C1216.13 1065.43 1222.97 1065.43 1218.41 1063.16C1225.25 1065.43 1232.09 1067.71 1238.93 1069.99C1241.21 1069.99 1245.77 1072.26 1248.06 1072.26C1250.34 1072.26 1252.62 1074.54 1252.62 1074.54C1259.46 1076.82 1257.18 1076.82 1264.02 1081.37C1264.02 1083.65 1282.26 1088.2 1282.26 1090.48H1279.98C1286.82 1095.03 1291.38 1099.58 1298.22 1104.14C1316.46 1117.8 1339.26 1131.46 1357.5 1142.84C1357.5 1142.84 1352.94 1140.57 1352.94 1138.29C1357.5 1142.84 1364.34 1147.4 1368.9 1149.67L1371.18 1151.95L1375.74 1156.5C1378.02 1158.78 1382.58 1161.06 1384.86 1163.33C1387.14 1165.61 1391.7 1167.89 1393.98 1167.89C1400.82 1170.16 1398.54 1167.89 1403.1 1170.16V1172.44C1409.94 1172.44 1414.5 1172.44 1419.06 1172.44C1419.06 1172.44 1421.34 1170.16 1423.63 1170.16C1423.63 1172.44 1428.19 1167.89 1428.19 1170.16H1430.47C1430.47 1170.16 1437.31 1165.61 1441.87 1161.06C1444.15 1156.5 1448.71 1154.23 1448.71 1154.23C1450.99 1151.95 1450.99 1151.95 1448.71 1151.95L1450.99 1149.67L1453.27 1147.4H1455.55C1457.83 1145.12 1457.83 1145.12 1460.11 1142.84C1455.55 1147.4 1448.71 1149.67 1444.15 1151.95C1446.43 1149.67 1448.71 1149.67 1450.99 1147.4C1453.27 1147.4 1457.83 1142.84 1462.39 1138.29C1462.39 1138.29 1462.39 1136.01 1464.67 1133.74C1466.95 1133.74 1466.95 1131.46 1469.23 1129.18C1469.23 1131.46 1466.95 1133.74 1464.67 1136.01C1466.95 1136.01 1469.23 1131.46 1471.51 1129.18C1471.51 1129.18 1473.79 1122.35 1476.07 1120.08C1476.07 1122.35 1478.35 1117.8 1478.35 1115.52C1478.35 1113.24 1478.35 1110.97 1478.35 1113.24C1478.35 1113.24 1476.07 1122.35 1476.07 1117.8C1476.07 1117.8 1478.35 1113.24 1478.35 1110.97C1478.35 1110.97 1478.35 1113.24 1476.07 1110.97C1476.07 1108.69 1476.07 1104.14 1476.07 1101.86V1104.14C1476.07 1101.86 1478.35 1108.69 1478.35 1113.24C1478.35 1117.8 1478.35 1122.35 1478.35 1120.08C1478.35 1120.08 1478.35 1115.52 1478.35 1110.97C1478.35 1104.14 1476.07 1099.58 1476.07 1101.86C1476.07 1104.14 1473.79 1099.58 1473.79 1101.86V1104.14C1473.79 1108.69 1471.51 1108.69 1471.51 1108.69C1471.51 1106.41 1473.79 1110.97 1473.79 1113.24C1473.79 1117.8 1473.79 1120.08 1473.79 1117.8V1120.08C1473.79 1117.8 1473.79 1113.24 1476.07 1110.97C1476.07 1110.97 1476.07 1108.69 1473.79 1106.41C1473.79 1104.14 1473.79 1101.86 1471.51 1101.86C1471.51 1108.69 1469.23 1106.41 1469.23 1104.14C1466.95 1101.86 1464.67 1101.86 1464.67 1106.41C1464.67 1101.86 1466.95 1108.69 1466.95 1113.24C1466.95 1113.24 1464.67 1115.52 1464.67 1117.8C1464.67 1120.08 1464.67 1120.08 1464.67 1120.08C1464.67 1122.35 1462.39 1124.63 1462.39 1122.35C1462.39 1124.63 1460.11 1124.63 1460.11 1126.91C1460.11 1129.18 1460.11 1126.91 1460.11 1129.18C1457.83 1131.46 1455.55 1133.74 1453.27 1136.01C1450.99 1136.01 1448.71 1136.01 1448.71 1133.74C1450.99 1131.46 1448.71 1136.01 1450.99 1133.74C1448.71 1133.74 1453.27 1131.46 1453.27 1129.18C1450.99 1129.18 1448.71 1131.46 1448.71 1133.74C1446.43 1136.01 1444.15 1138.29 1441.87 1138.29C1441.87 1138.29 1441.87 1138.29 1441.87 1136.01V1133.74C1441.87 1136.01 1439.59 1136.01 1439.59 1136.01C1439.59 1136.01 1437.31 1138.29 1432.75 1140.57C1430.47 1142.84 1425.91 1145.12 1425.91 1145.12C1423.63 1145.12 1423.63 1145.12 1421.34 1147.4C1421.34 1147.4 1439.59 1138.29 1435.03 1138.29C1435.03 1138.29 1430.47 1142.84 1423.63 1145.12C1419.06 1147.4 1412.22 1149.67 1412.22 1149.67C1409.94 1149.67 1409.94 1149.67 1409.94 1151.95C1407.66 1151.95 1409.94 1149.67 1407.66 1149.67H1405.38C1400.82 1151.95 1396.26 1149.67 1391.7 1147.4C1393.98 1147.4 1393.98 1147.4 1396.26 1147.4H1398.54C1396.26 1147.4 1393.98 1145.12 1391.7 1145.12C1391.7 1142.84 1382.58 1140.57 1380.3 1136.01C1378.02 1136.01 1380.3 1136.01 1378.02 1136.01C1373.46 1131.46 1371.18 1129.18 1366.62 1126.91C1364.34 1126.91 1364.34 1126.91 1366.62 1129.18L1368.9 1122.35C1373.46 1122.35 1364.34 1115.52 1368.9 1117.8C1368.9 1117.8 1366.62 1115.52 1364.34 1115.52C1364.34 1115.52 1362.06 1115.52 1359.78 1115.52C1357.5 1113.24 1357.5 1113.24 1355.22 1110.97C1355.22 1110.97 1355.22 1110.97 1355.22 1108.69C1350.66 1106.41 1352.94 1104.14 1348.38 1101.86C1346.1 1099.58 1341.54 1097.31 1339.26 1097.31C1336.98 1095.03 1339.26 1095.03 1339.26 1095.03Z"
          fill="black"/>
    <path d="M1480.63 972.083C1480.63 967.53 1480.63 962.976 1478.35 956.146C1480.63 972.083 1476.07 978.914 1476.07 992.574C1473.79 992.574 1469.23 992.574 1466.95 994.851C1464.67 994.851 1464.67 997.128 1464.67 997.128H1462.39C1460.11 999.405 1457.83 1001.68 1455.55 1001.68C1457.83 1001.68 1457.83 999.405 1460.11 999.405C1457.83 1001.68 1457.83 1001.68 1455.55 1001.68C1448.71 1006.24 1437.31 1008.51 1428.19 1006.24H1425.91L1421.35 1003.96C1419.07 1001.68 1416.79 1001.68 1412.22 999.405C1407.66 997.128 1400.82 994.851 1393.98 992.574C1380.3 985.744 1346.1 972.083 1332.42 965.253C1330.14 965.253 1327.86 962.976 1327.86 962.976C1330.14 965.253 1330.14 965.253 1334.7 967.53C1325.58 965.253 1318.74 962.976 1309.62 960.699C1309.62 962.976 1309.62 962.976 1314.18 965.253L1309.62 962.976C1305.06 962.976 1298.22 960.699 1293.66 960.699C1295.94 960.699 1291.38 958.423 1289.1 958.423C1282.26 953.869 1273.14 949.315 1273.14 944.762V942.485C1273.14 940.208 1273.14 937.932 1273.14 937.932C1275.42 937.932 1275.42 933.378 1275.42 935.655C1275.42 931.101 1277.7 926.548 1279.98 921.994C1286.82 915.164 1293.66 910.61 1305.06 906.056C1314.18 903.78 1325.58 901.503 1336.98 901.503C1346.1 901.503 1352.94 899.226 1362.06 901.503C1368.9 899.226 1380.3 901.503 1382.58 899.226C1391.7 901.503 1393.98 899.226 1403.1 901.503C1400.82 899.226 1412.22 901.503 1407.66 899.226C1403.1 894.673 1403.1 896.949 1398.54 894.673C1378.02 887.842 1355.22 883.289 1332.42 883.289C1318.74 883.289 1298.22 883.289 1282.26 892.396C1273.14 896.949 1266.3 903.78 1259.46 912.887C1252.62 921.994 1250.34 931.101 1250.34 942.485C1250.34 947.039 1250.34 949.315 1250.34 953.869C1252.62 962.976 1259.46 969.806 1268.58 976.637C1273.14 978.914 1277.7 981.19 1279.98 983.467C1282.26 985.744 1286.82 985.744 1289.1 988.021C1295.94 990.298 1300.5 994.851 1307.34 997.128H1309.62C1309.62 999.405 1350.66 1008.51 1352.94 1010.79H1355.22C1368.9 1017.62 1382.58 1026.73 1396.26 1031.28C1398.54 1031.28 1403.1 1031.28 1405.38 1031.28C1407.66 1033.56 1407.66 1031.28 1409.94 1033.56C1416.79 1040.39 1423.63 1038.11 1419.07 1038.11C1425.91 1038.11 1432.75 1038.11 1439.59 1038.11C1441.87 1038.11 1444.15 1035.83 1448.71 1035.83C1450.99 1035.83 1453.27 1035.83 1453.27 1035.83C1460.11 1033.56 1457.83 1035.83 1464.67 1033.56C1464.67 1033.56 1469.23 1031.28 1473.79 1029C1478.35 1026.73 1480.63 1022.17 1480.63 1022.17C1485.19 1017.62 1492.03 1015.34 1496.59 1008.51C1503.43 999.405 1505.71 985.744 1503.43 974.36C1501.15 962.976 1496.59 951.592 1492.03 944.762C1489.75 944.762 1494.31 947.039 1492.03 949.315C1489.75 944.762 1487.47 940.208 1482.91 935.655C1478.35 931.101 1473.79 926.548 1469.23 921.994C1466.95 919.717 1464.67 919.717 1464.67 917.44C1462.39 915.164 1462.39 917.44 1460.11 915.164V912.887C1455.55 912.887 1455.55 908.333 1450.99 908.333H1448.71C1448.71 906.056 1444.15 906.056 1446.43 906.056H1444.15C1441.87 906.056 1430.47 906.056 1428.19 906.056C1425.91 906.056 1425.91 906.056 1425.91 906.056H1423.63H1421.35C1421.35 906.056 1421.35 906.056 1421.35 903.78C1419.07 903.78 1419.07 903.78 1416.79 903.78C1419.07 906.056 1423.63 908.333 1425.91 910.61C1423.63 910.61 1421.35 908.333 1421.35 908.333C1419.07 906.056 1416.79 906.056 1412.22 903.78C1412.22 903.78 1409.94 906.056 1409.94 903.78C1409.94 901.503 1407.66 903.78 1407.66 901.503C1409.94 901.503 1409.94 901.503 1412.22 901.503C1412.22 899.226 1409.94 899.226 1407.66 899.226C1407.66 899.226 1405.38 899.226 1403.1 899.226C1403.1 899.226 1403.1 899.226 1400.82 896.949H1398.54C1398.54 896.949 1403.1 899.226 1400.82 899.226C1400.82 899.226 1398.54 896.949 1396.26 896.949C1396.26 896.949 1396.26 896.949 1396.26 899.226C1393.98 899.226 1393.98 899.226 1393.98 899.226C1391.7 899.226 1403.1 896.949 1400.82 896.949C1400.82 896.949 1389.42 896.949 1391.7 899.226C1391.7 899.226 1389.42 899.226 1391.7 901.503H1393.98C1396.26 901.503 1396.26 903.78 1393.98 903.78C1391.7 903.78 1403.1 901.503 1400.82 901.503C1400.82 901.503 1396.26 901.503 1396.26 899.226H1393.98H1391.7C1398.54 901.503 1384.86 903.78 1391.7 906.056C1389.42 903.78 1393.98 903.78 1396.26 906.056C1396.26 906.056 1396.26 908.333 1398.54 908.333C1400.82 908.333 1398.54 908.333 1400.82 908.333L1403.1 910.61C1405.38 910.61 1405.38 912.887 1407.66 912.887C1409.94 912.887 1412.22 915.164 1414.51 915.164C1414.51 915.164 1416.79 917.44 1414.51 919.717C1412.22 919.717 1416.79 917.44 1412.22 917.44C1412.22 919.717 1409.94 917.44 1407.66 917.44C1407.66 917.44 1409.94 919.717 1412.22 919.717C1414.51 919.717 1416.79 919.717 1419.07 921.994H1421.35H1423.63C1423.63 921.994 1435.03 921.994 1435.03 924.271C1437.31 924.271 1437.31 926.548 1437.31 926.548C1437.31 926.548 1421.35 924.271 1423.63 924.271C1423.63 924.271 1441.87 926.548 1441.87 928.824H1444.15C1446.43 928.824 1444.15 928.824 1444.15 931.101V933.378C1446.43 933.378 1450.99 937.932 1453.27 937.932C1450.99 937.932 1450.99 937.932 1448.71 937.932H1446.43C1460.11 928.824 1460.11 928.824 1462.39 928.824C1462.39 931.101 1469.23 931.101 1471.51 935.655C1471.51 935.655 1471.51 935.655 1473.79 935.655C1476.07 940.208 1476.07 942.485 1478.35 944.762C1480.63 944.762 1480.63 944.762 1480.63 942.485L1482.91 944.762C1480.63 944.762 1482.91 949.315 1480.63 949.315C1480.63 949.315 1480.63 951.592 1482.91 951.592C1482.91 951.592 1485.19 951.592 1485.19 953.869C1485.19 956.146 1485.19 956.146 1485.19 958.423C1485.19 958.423 1485.19 958.423 1482.91 958.423C1485.19 960.699 1482.91 960.699 1482.91 962.976C1480.63 967.53 1480.63 969.807 1480.63 972.083Z"
          fill="black"/>
    <path d="M1195.61 1293.11C1197.89 1295.39 1202.45 1302.22 1207.01 1306.77C1200.17 1293.11 1193.33 1277.17 1179.65 1272.62C1181.93 1268.07 1177.37 1256.68 1177.37 1256.68C1175.09 1254.41 1172.81 1252.13 1172.81 1249.85C1172.81 1252.13 1175.09 1252.13 1175.09 1254.41C1172.81 1252.13 1172.81 1252.13 1172.81 1249.85C1168.25 1243.02 1165.97 1233.92 1165.97 1224.81C1165.97 1217.98 1170.53 1211.15 1177.37 1204.32C1179.65 1202.04 1181.93 1199.76 1186.49 1199.76C1188.77 1199.76 1191.05 1197.49 1193.33 1197.49L1195.61 1195.21C1195.61 1195.21 1195.61 1195.21 1197.89 1195.21H1200.17L1202.45 1197.49C1207.01 1199.76 1209.29 1202.04 1211.57 1204.32C1213.85 1204.32 1213.85 1206.59 1216.13 1206.59C1213.85 1204.32 1213.85 1204.32 1211.57 1202.04C1218.41 1204.32 1225.25 1206.59 1229.81 1208.87C1229.81 1206.59 1229.81 1206.59 1227.53 1204.32L1229.81 1206.59C1234.37 1206.59 1238.93 1211.15 1241.21 1213.42C1238.93 1213.42 1241.21 1215.7 1243.49 1217.98C1250.33 1224.81 1257.18 1229.36 1264.02 1236.19C1264.02 1236.19 1264.02 1238.47 1266.3 1238.47L1273.14 1243.02C1270.86 1243.02 1275.42 1247.58 1273.14 1245.3C1277.7 1247.58 1279.98 1254.41 1284.54 1256.68C1291.38 1263.51 1295.94 1272.62 1302.78 1279.45C1307.34 1288.56 1311.9 1295.39 1311.9 1304.5C1311.9 1311.33 1311.9 1318.16 1307.34 1324.99C1305.06 1331.82 1300.5 1338.65 1298.22 1340.92C1291.38 1345.48 1291.38 1347.75 1282.26 1352.31C1284.54 1352.31 1275.42 1356.86 1279.98 1356.86C1284.54 1356.86 1284.54 1354.59 1291.38 1354.59C1295.94 1352.31 1300.5 1350.03 1307.34 1347.75C1311.9 1345.48 1316.46 1340.92 1321.02 1336.37C1327.86 1327.26 1332.42 1315.88 1332.42 1302.22C1330.14 1284 1321.02 1270.34 1314.18 1258.96C1305.06 1247.58 1293.66 1233.92 1284.54 1227.08C1282.26 1224.81 1282.26 1222.53 1279.98 1220.25C1270.86 1213.42 1261.74 1202.04 1250.33 1195.21C1245.77 1190.66 1241.21 1186.1 1234.37 1183.83C1234.37 1183.83 1234.37 1183.83 1232.09 1183.83C1232.09 1183.83 1222.97 1177 1213.85 1174.72C1209.29 1172.44 1200.17 1170.17 1195.61 1172.44C1191.05 1172.44 1186.49 1174.72 1186.49 1174.72C1186.49 1174.72 1184.21 1174.72 1184.21 1177C1170.53 1181.55 1154.57 1190.66 1147.73 1204.32C1147.73 1206.59 1145.45 1211.15 1145.45 1213.42C1143.17 1215.7 1145.45 1215.7 1143.17 1220.25C1138.61 1227.08 1138.61 1231.64 1140.89 1229.36C1140.89 1236.19 1140.89 1240.75 1143.17 1247.58C1143.17 1249.85 1145.45 1252.13 1145.45 1254.41C1145.45 1256.68 1145.45 1256.68 1145.45 1258.96C1147.73 1263.51 1145.45 1263.51 1147.73 1268.07C1147.73 1270.34 1156.85 1279.45 1156.85 1281.73C1159.13 1286.28 1159.13 1293.11 1163.69 1297.67C1172.81 1311.33 1184.21 1324.99 1193.33 1336.37C1193.33 1336.37 1191.05 1334.09 1193.33 1331.82C1197.89 1338.65 1202.45 1345.48 1209.29 1352.31C1209.29 1354.59 1211.57 1354.59 1211.57 1356.86C1213.85 1359.14 1213.85 1356.86 1216.13 1359.14V1361.42C1220.69 1363.69 1220.69 1365.97 1222.97 1368.25H1225.25C1225.25 1370.52 1229.81 1370.52 1227.53 1370.52H1229.81C1232.09 1370.52 1245.77 1370.52 1248.05 1370.52C1250.33 1370.52 1250.33 1370.52 1250.33 1370.52H1252.61H1254.89C1254.89 1370.52 1254.89 1370.52 1254.89 1372.8C1257.17 1372.8 1257.18 1372.8 1259.46 1372.8C1254.89 1372.8 1250.33 1370.52 1248.05 1368.25C1250.33 1368.25 1252.61 1368.25 1254.89 1368.25C1257.17 1368.25 1261.74 1370.52 1264.02 1370.52C1264.02 1370.52 1264.02 1368.25 1266.3 1368.25H1268.58C1266.3 1368.25 1266.3 1368.25 1264.02 1368.25C1264.02 1370.52 1268.58 1368.25 1268.58 1368.25C1268.58 1368.25 1273.14 1368.25 1273.14 1365.97C1273.14 1368.25 1275.42 1365.97 1275.42 1365.97C1277.7 1365.97 1277.7 1365.97 1277.7 1365.97C1277.7 1363.69 1273.14 1365.97 1273.14 1363.69C1273.14 1363.69 1275.42 1363.69 1277.7 1363.69C1277.7 1363.69 1277.7 1363.69 1277.7 1361.42C1279.98 1361.42 1279.98 1359.14 1282.26 1361.42C1282.26 1361.42 1282.26 1361.42 1279.98 1361.42C1282.26 1361.42 1270.86 1368.25 1273.14 1368.25L1282.26 1361.42C1279.98 1361.42 1282.26 1359.14 1282.26 1359.14V1361.42C1279.98 1361.42 1279.98 1361.42 1279.98 1359.14C1282.26 1359.14 1273.14 1365.97 1275.42 1363.69C1275.42 1363.69 1277.7 1361.42 1279.98 1361.42C1279.98 1361.42 1279.98 1359.14 1282.26 1359.14C1282.26 1359.14 1284.54 1359.14 1284.54 1356.86C1277.7 1359.14 1286.82 1350.03 1279.98 1350.03C1282.26 1350.03 1279.98 1352.31 1277.7 1352.31C1277.7 1352.31 1275.42 1352.31 1273.14 1352.31C1270.86 1352.31 1273.14 1352.31 1273.14 1354.59H1270.86C1270.86 1356.86 1268.58 1354.59 1266.3 1354.59C1264.02 1354.59 1261.74 1354.59 1259.46 1354.59C1259.46 1354.59 1257.18 1352.31 1259.46 1352.31C1261.74 1352.31 1259.46 1354.59 1261.74 1354.59C1259.46 1352.31 1264.02 1354.59 1264.02 1352.31C1264.02 1352.31 1261.74 1352.31 1259.46 1352.31C1257.18 1352.31 1254.89 1352.31 1254.89 1352.31C1254.89 1352.31 1254.89 1352.31 1254.89 1350.03H1252.61H1250.33C1250.33 1350.03 1238.93 1350.03 1241.21 1350.03C1238.93 1350.03 1238.93 1347.75 1238.93 1347.75C1238.93 1347.75 1252.61 1350.03 1250.33 1350.03C1250.33 1350.03 1234.37 1347.75 1234.37 1345.48H1232.09C1229.81 1343.2 1232.09 1345.48 1232.09 1343.2V1340.92C1229.81 1340.92 1227.53 1336.37 1225.25 1336.37C1225.25 1336.37 1227.53 1336.37 1229.81 1336.37H1232.09C1232.09 1334.09 1229.81 1334.09 1227.53 1334.09C1227.53 1331.82 1220.69 1329.54 1220.69 1327.26C1220.69 1327.26 1220.69 1327.26 1218.41 1327.26C1216.13 1324.99 1216.13 1322.71 1213.85 1320.43C1211.57 1320.43 1211.57 1320.43 1211.57 1322.71L1209.29 1320.43C1211.57 1320.43 1207.01 1315.88 1211.57 1315.88C1211.57 1315.88 1211.57 1313.6 1209.29 1313.6H1207.01C1207.01 1311.33 1207.01 1311.33 1204.73 1309.05C1204.73 1309.05 1204.73 1309.05 1207.01 1309.05C1204.73 1306.77 1207.01 1306.77 1204.73 1304.5C1202.45 1302.22 1200.17 1299.94 1200.17 1302.22C1193.33 1293.11 1195.61 1293.11 1195.61 1293.11Z"
          fill="black"/>
    <path d="M1177.37 1329.54H1179.65C1175.09 1324.99 1175.09 1322.71 1172.81 1331.82C1172.81 1327.26 1170.53 1324.99 1170.53 1324.99V1327.26C1168.25 1331.82 1165.97 1327.26 1165.97 1324.99C1165.97 1322.71 1165.97 1322.71 1165.97 1320.43C1163.69 1320.43 1163.69 1320.43 1161.41 1320.43C1161.41 1320.43 1159.13 1320.43 1159.13 1322.71C1159.13 1320.43 1156.85 1320.43 1156.85 1318.16V1315.88C1159.13 1315.88 1156.85 1313.6 1159.13 1315.88C1156.85 1315.88 1159.13 1313.6 1156.85 1313.6C1156.85 1309.05 1154.57 1306.77 1152.29 1302.22C1152.29 1299.94 1147.73 1299.94 1150.01 1297.66C1145.45 1293.11 1143.17 1293.11 1140.89 1290.83C1140.89 1288.56 1138.61 1288.56 1138.61 1286.28C1136.33 1286.28 1136.33 1284 1136.33 1286.28C1134.05 1286.28 1136.33 1286.28 1134.05 1288.56C1131.77 1293.11 1129.49 1295.39 1129.49 1299.94C1131.77 1302.22 1129.49 1306.77 1129.49 1309.05C1129.49 1311.33 1131.77 1315.88 1134.05 1318.16C1134.05 1318.16 1134.05 1320.43 1131.77 1320.43C1131.77 1322.71 1134.05 1327.26 1134.05 1329.54C1134.05 1331.82 1134.05 1331.82 1134.05 1334.09C1134.05 1334.09 1136.33 1336.37 1138.61 1338.65C1140.89 1340.92 1143.17 1340.92 1143.17 1343.2C1145.45 1345.48 1145.45 1352.31 1150.01 1354.58C1150.01 1354.58 1152.29 1354.58 1152.29 1352.31C1152.29 1352.31 1152.29 1352.31 1154.57 1352.31C1154.57 1356.86 1156.85 1354.58 1156.85 1354.58C1159.13 1354.58 1159.13 1354.58 1161.41 1354.58H1163.69C1163.69 1354.58 1163.69 1354.58 1163.69 1356.86C1165.97 1356.86 1163.69 1356.86 1165.97 1356.86C1165.97 1359.14 1168.25 1354.58 1170.53 1354.58C1172.81 1354.58 1172.81 1356.86 1175.09 1356.86C1179.65 1356.86 1184.21 1354.58 1186.49 1354.58C1186.49 1352.31 1186.49 1354.58 1184.21 1352.31C1184.21 1352.31 1186.49 1352.31 1188.77 1352.31H1186.49C1188.77 1352.31 1191.05 1352.31 1191.05 1352.31H1193.33V1354.58C1193.33 1352.31 1195.61 1354.58 1195.61 1354.58C1195.61 1356.86 1195.61 1354.58 1197.89 1354.58C1197.89 1354.58 1197.89 1350.03 1197.89 1347.75V1345.48C1197.89 1345.48 1195.61 1345.48 1193.33 1343.2H1195.61C1195.61 1343.2 1195.61 1343.2 1197.89 1343.2C1197.89 1343.2 1197.89 1343.2 1200.17 1343.2C1200.17 1343.2 1197.89 1343.2 1197.89 1340.92C1197.89 1340.92 1197.89 1345.48 1200.17 1345.48V1340.92C1200.17 1340.92 1200.17 1340.92 1200.17 1338.65C1200.17 1338.65 1197.89 1338.65 1197.89 1336.37L1200.17 1340.92C1200.17 1340.92 1200.17 1340.92 1200.17 1338.65C1200.17 1338.65 1195.61 1331.82 1195.61 1334.09C1197.89 1334.09 1195.61 1336.37 1195.61 1336.37C1195.61 1336.37 1195.61 1336.37 1193.33 1336.37C1193.33 1336.37 1193.33 1336.37 1191.05 1336.37C1191.05 1336.37 1191.05 1336.37 1188.77 1336.37L1186.49 1334.09C1186.49 1334.09 1186.49 1336.37 1188.77 1336.37C1186.49 1334.09 1188.77 1336.37 1188.77 1334.09V1336.37C1188.77 1336.37 1191.05 1334.09 1188.77 1334.09C1188.77 1334.09 1188.77 1338.65 1186.49 1336.37V1334.09C1186.49 1334.09 1184.21 1334.09 1184.21 1336.37V1334.09C1184.21 1331.82 1184.21 1336.37 1181.93 1334.09H1179.65C1179.65 1334.09 1179.65 1334.09 1177.37 1334.09V1336.37C1177.37 1334.09 1175.09 1334.09 1175.09 1331.82V1334.09C1175.09 1334.09 1175.09 1334.09 1175.09 1331.82C1177.37 1331.82 1177.37 1329.54 1177.37 1329.54Z"
          fill="black"/>
</svg>
